<?xml version="1.0" encoding="UTF-8" standalone="no"?>
<!-- Created with Inkscape (http://www.inkscape.org/) -->
<svg xmlns:dc="http://purl.org/dc/elements/1.1/" xmlns:cc="http://creativecommons.org/ns#" xmlns:rdf="http://www.w3.org/1999/02/22-rdf-syntax-ns#" xmlns:svg="http://www.w3.org/2000/svg" xmlns="http://www.w3.org/2000/svg" xmlns:sodipodi="http://sodipodi.sourceforge.net/DTD/sodipodi-0.dtd" xmlns:inkscape="http://www.inkscape.org/namespaces/inkscape" width="1023.3063" height="1023.3063" id="svg2" version="1.1" inkscape:version="0.47 r22583" style="display: inline;" sodipodi:docname="Caution_UFO_final.svg">
  <defs id="defs4">
    <inkscape:perspective sodipodi:type="inkscape:persp3d" inkscape:vp_x="0 : 526.18109 : 1" inkscape:vp_y="0 : 1000 : 0" inkscape:vp_z="744.09448 : 526.18109 : 1" inkscape:persp3d-origin="372.04724 : 350.78739 : 1" id="perspective10"/>
    <inkscape:perspective id="perspective2884" inkscape:persp3d-origin="0.5 : 0.33333333 : 1" inkscape:vp_z="1 : 0.5 : 1" inkscape:vp_y="0 : 1000 : 0" inkscape:vp_x="0 : 0.5 : 1" sodipodi:type="inkscape:persp3d"/>
    <inkscape:perspective id="perspective2916" inkscape:persp3d-origin="0.5 : 0.33333333 : 1" inkscape:vp_z="1 : 0.5 : 1" inkscape:vp_y="0 : 1000 : 0" inkscape:vp_x="0 : 0.5 : 1" sodipodi:type="inkscape:persp3d"/>
    <inkscape:perspective id="perspective3757" inkscape:persp3d-origin="0.5 : 0.33333333 : 1" inkscape:vp_z="1 : 0.5 : 1" inkscape:vp_y="0 : 1000 : 0" inkscape:vp_x="0 : 0.5 : 1" sodipodi:type="inkscape:persp3d"/>
    <inkscape:perspective id="perspective3792" inkscape:persp3d-origin="0.5 : 0.33333333 : 1" inkscape:vp_z="1 : 0.5 : 1" inkscape:vp_y="0 : 1000 : 0" inkscape:vp_x="0 : 0.5 : 1" sodipodi:type="inkscape:persp3d"/>
    <inkscape:perspective id="perspective3825" inkscape:persp3d-origin="0.5 : 0.33333333 : 1" inkscape:vp_z="1 : 0.5 : 1" inkscape:vp_y="0 : 1000 : 0" inkscape:vp_x="0 : 0.5 : 1" sodipodi:type="inkscape:persp3d"/>
    <inkscape:perspective id="perspective3825-4" inkscape:persp3d-origin="0.5 : 0.33333333 : 1" inkscape:vp_z="1 : 0.5 : 1" inkscape:vp_y="0 : 1000 : 0" inkscape:vp_x="0 : 0.5 : 1" sodipodi:type="inkscape:persp3d"/>
    <inkscape:perspective id="perspective3825-2" inkscape:persp3d-origin="0.5 : 0.33333333 : 1" inkscape:vp_z="1 : 0.5 : 1" inkscape:vp_y="0 : 1000 : 0" inkscape:vp_x="0 : 0.5 : 1" sodipodi:type="inkscape:persp3d"/>
    <inkscape:perspective id="perspective4233" inkscape:persp3d-origin="0.5 : 0.33333333 : 1" inkscape:vp_z="1 : 0.5 : 1" inkscape:vp_y="0 : 1000 : 0" inkscape:vp_x="0 : 0.5 : 1" sodipodi:type="inkscape:persp3d"/>
    <inkscape:perspective id="perspective3231" inkscape:persp3d-origin="0.5 : 0.33333333 : 1" inkscape:vp_z="1 : 0.5 : 1" inkscape:vp_y="0 : 1000 : 0" inkscape:vp_x="0 : 0.5 : 1" sodipodi:type="inkscape:persp3d"/>
    <inkscape:perspective id="perspective3164" inkscape:persp3d-origin="0.5 : 0.33333333 : 1" inkscape:vp_z="1 : 0.5 : 1" inkscape:vp_y="0 : 1000 : 0" inkscape:vp_x="0 : 0.5 : 1" sodipodi:type="inkscape:persp3d"/>
    <inkscape:perspective id="perspective2863" inkscape:persp3d-origin="0.5 : 0.33333333 : 1" inkscape:vp_z="1 : 0.5 : 1" inkscape:vp_y="0 : 1000 : 0" inkscape:vp_x="0 : 0.5 : 1" sodipodi:type="inkscape:persp3d"/>
    <inkscape:perspective id="perspective2945" inkscape:persp3d-origin="0.5 : 0.33333333 : 1" inkscape:vp_z="1 : 0.5 : 1" inkscape:vp_y="0 : 1000 : 0" inkscape:vp_x="0 : 0.5 : 1" sodipodi:type="inkscape:persp3d"/>
  </defs>
  <sodipodi:namedview id="base" pagecolor="#ffffff" bordercolor="#666666" borderopacity="1.0" inkscape:pageopacity="0.0" inkscape:pageshadow="2" inkscape:zoom="0.43404754" inkscape:cx="191.18785" inkscape:cy="491.47239" inkscape:document-units="px" inkscape:current-layer="layer1" showgrid="false" inkscape:window-width="1280" inkscape:window-height="996" inkscape:window-x="0" inkscape:window-y="0" inkscape:window-maximized="1" showguides="true" inkscape:guide-bbox="true"/>
  <metadata id="metadata7">
    <rdf:RDF>
      <cc:Work rdf:about="">
        <dc:format>image/svg+xml</dc:format>
        <dc:type rdf:resource="http://purl.org/dc/dcmitype/StillImage"/>
        <dc:title/>
      </cc:Work>
    </rdf:RDF>
  </metadata>
  <g inkscape:groupmode="layer" id="layer4" inkscape:label="jaune" style="display: inline;" transform="translate(174.95, -18.5886)" sodipodi:insensitive="true">
    <rect transform="matrix(0.707107, 0.707107, -0.707107, 0.707107, 0, 0)" ry="36.398502" y="-231.8199" x="244.3497" height="737.34528" width="737.34528" id="rect2200" style="fill: rgb(255, 255, 0); fill-opacity: 1; stroke: rgb(0, 0, 0); stroke-width: 10.6299; stroke-linecap: round; stroke-linejoin: round; stroke-miterlimit: 4; stroke-opacity: 1; stroke-dasharray: none;"/>
    <g transform="matrix(0.970164, 0.0339421, -0.0376934, 0.873612, -212.754, -57.5338)" style="display: inline;" id="g3147"/>
  </g>
  <g inkscape:groupmode="layer" id="layer1" inkscape:label="Calque" style="display: inline;">
    <g transform="matrix(0.898724, -0.266876, 0.19364, 0.652097, -88.0909, 208.024)" id="g2928">
      <g transform="matrix(0.997884, -0.0650264, 0.0650264, 0.997884, 177.994, 128.027)" id="g3831">
        <path style="fill: rgb(0, 0, 0); fill-opacity: 1; stroke: rgb(0, 0, 0); stroke-width: 1.25222px; stroke-linecap: butt; stroke-linejoin: miter; stroke-opacity: 1;" d="m 300.5625,327.59375 c -120.84791,-0.3106 -171.21875,95.125 -171.21875,95.125 127.95855,59.9727 217.28497,56.74154 338.625,0 0,0 -46.55834,-94.8144 -167.40625,-95.125 z m -95,67.53125 c 3.65071,0.0512 7.01459,1.32444 9.59375,3.90625 6.87777,6.88481 5.55006,20.50913 -2.96875,30.4375 -8.37189,9.75714 -20.60068,12.33799 -27.5625,5.8125 l -0.3125,-0.3125 c -6.87777,-6.88481 -5.55006,-20.50913 2.96875,-30.4375 5.32426,-6.20523 12.19673,-9.49166 18.28125,-9.40625 z m 184.28125,0.9375 c 6.08452,-0.0798 12.95699,3.01192 18.28125,8.8125 8.51881,9.28093 9.84652,22.00165 2.96875,28.4375 l -0.3125,0.28125 c -6.96182,6.09996 -19.19061,3.71461 -27.5625,-5.40625 -8.51881,-9.28093 -9.84652,-22.0329 -2.96875,-28.46875 2.57916,-2.41344 5.94304,-3.60834 9.59375,-3.65625 z M 299.75,405.59375 c 4.75279,-0.17737 9.60374,1.1786 13.8125,4.21875 10.36003,7.48344 12.93415,22.30212 5.75,33.09375 -7.06025,10.6055 -20.96157,13.40537 -31.3125,6.3125 l -0.4375,-0.3125 c -10.36003,-7.48344 -12.93415,-22.30212 -5.75,-33.09375 4.26559,-6.40753 10.99112,-9.95952 17.9375,-10.21875 z" id="path2990"/>
        <path style="fill: rgb(0, 0, 0); fill-opacity: 1; stroke: rgb(0, 0, 0); stroke-width: 1.25222px; stroke-linecap: butt; stroke-linejoin: miter; stroke-opacity: 1;" d="m -51.361694,545.40324 c 0,0 19.973992,-29.48542 37.505791,-50.88849 27.482076,-26.28636 68.696954,-49.52388 137.504423,-69.90661 106.02685,55.91476 219.67483,72.96176 350.97158,0 56.73831,0 95.72003,38.88296 133.90501,66.86124 22.59312,24.30316 41.10521,53.93386 41.10521,53.93386 0,0 -170.90697,116.80264 -348.06802,115.47269 C 124.40126,659.54598 -51.361694,545.40324 -51.361694,545.40324 z" id="path3823" sodipodi:nodetypes="cccccczc"/>
      </g>
      <path inkscape:transform-center-y="412.0942" inkscape:transform-center-x="166.79377" sodipodi:nodetypes="cscc" id="path3835" d="m 338.3592,750.32881 c -5.60607,10.12242 -80.89154,205.44467 -77.07847,194.68676 3.81308,-10.75793 83.03618,-191.56597 83.03618,-191.56597 l -5.95771,-3.12079 z" style="fill: rgb(0, 0, 0); fill-opacity: 1; stroke: rgb(0, 0, 0); stroke-width: 1.25222px; stroke-linecap: butt; stroke-linejoin: miter; stroke-opacity: 1;"/>
      <path style="fill: rgb(0, 0, 0); fill-opacity: 1; stroke: rgb(0, 0, 0); stroke-width: 1.25222px; stroke-linecap: butt; stroke-linejoin: miter; stroke-opacity: 1;" d="m 679.98972,737.74657 c 5.39737,10.23522 127.56209,180.21893 120.65086,171.13561 -6.91126,-9.08335 -114.7763,-174.41024 -114.7763,-174.41024 l -5.87456,3.27463 z" id="path3859" sodipodi:nodetypes="cscc" inkscape:transform-center-x="-251.75578" inkscape:transform-center-y="366.1444"/>
      <path style="fill: rgb(0, 0, 0); fill-opacity: 1; stroke: rgb(0, 0, 0); stroke-width: 1.25222px; stroke-linecap: butt; stroke-linejoin: miter; stroke-opacity: 1;" d="m 415.38606,770.4655 c -2.13884,7.07964 -23.89182,138.1266 -22.89163,130.96524 1.0002,-7.1614 26.7936,-130.08232 26.7936,-130.08232 l -3.90197,-0.88292 z" id="path3874" sodipodi:nodetypes="cscc" inkscape:transform-center-x="68.92722" inkscape:transform-center-y="400.96478"/>
      <path inkscape:transform-center-y="376.4096" inkscape:transform-center-x="-153.65717" sodipodi:nodetypes="cscc" id="path3876" d="m 612.04477,759.75176 c 1.96209,7.13065 53.37649,129.61761 50.40726,123.0245 -2.96923,-6.59316 -46.63484,-124.35632 -46.63484,-124.35632 l -3.77242,1.33182 z" style="fill: rgb(0, 0, 0); fill-opacity: 1; stroke: rgb(0, 0, 0); stroke-width: 1.25222px; stroke-linecap: butt; stroke-linejoin: miter; stroke-opacity: 1;"/>
    </g>
  </g>
</svg>