<?xml version="1.0" encoding="UTF-8" standalone="no"?>
<svg xmlns="http://www.w3.org/2000/svg" xmlns:xlink="http://www.w3.org/1999/xlink" width="87" height="87" version="1.0">
  <defs>
    <path id="m" fill="navy" fill-opacity=".50196078" fill-rule="evenodd" d="M-261.48031 708.82666c-.29201-.56526-2.32094-1.25-4.53255-1.25s-4.14653.68474-4.43854 1.25c-1.47436 2.85396-4.31146 7.11059-4.31146 12 0 1.16435 5.40644 2.46875 8.78125 2.46875 3.37355 0 8.8125-1.27738 8.8125-2.46875 0-4.88941-2.83684-9.14604-4.3112-12z"/>
    <path id="s" fill="red" fill-opacity=".50196078" fill-rule="evenodd" d="M-271.49424 718.13898c-.29201-.56526-2.32094-1.25-4.53255-1.25s-4.14653.68474-4.43854 1.25c-1.47436 2.85396-4.31146 7.11059-4.31146 12 0 1.16435 5.40644 2.46875 8.78125 2.46875 3.37355 0 8.8125-1.27738 8.8125-2.46875 0-4.88941-2.83684-9.14604-4.3112-12z"/>
    <path id="y" fill="green" fill-opacity=".50196078" fill-rule="evenodd" d="M-251.46638 718.13898c-.29201-.56526-2.32094-1.25-4.53255-1.25s-4.14653.68474-4.43854 1.25c-1.47436 2.85396-4.31146 7.11059-4.31146 12 0 1.16435 5.40644 2.46875 8.78125 2.46875 3.37355 0 8.8125-1.27738 8.8125-2.46875 0-4.88941-2.83684-9.14604-4.3112-12z"/>
  </defs>
  <defs>
    <linearGradient id="e">
      <stop offset="0" stop-color="#fff"/>
      <stop offset=".59322035" stop-color="#00c000"/>
      <stop offset="1" stop-color="green"/>
    </linearGradient>
    <linearGradient id="d">
      <stop offset="0" stop-color="#fff"/>
      <stop offset=".59322035" stop-color="#7f7fff"/>
      <stop offset="1" stop-color="#00f"/>
    </linearGradient>
    <linearGradient id="c">
      <stop offset="0" stop-color="#fff"/>
      <stop offset=".59322035" stop-color="#ff7f7f"/>
      <stop offset="1" stop-color="red"/>
    </linearGradient>
    <linearGradient id="g">
      <stop offset="0" stop-color="#fff"/>
      <stop offset="1" stop-color="#fff" stop-opacity=".3137255"/>
    </linearGradient>
    <linearGradient id="a">
      <stop offset="0" stop-color="#fff" stop-opacity="0"/>
      <stop offset=".55000001" stop-color="#fff" stop-opacity="0"/>
      <stop offset=".77999997" stop-color="#fff" stop-opacity=".69387758"/>
      <stop offset=".89406776" stop-color="#fff" stop-opacity="0"/>
      <stop offset="1" stop-color="#fff" stop-opacity="0"/>
    </linearGradient>
    <linearGradient id="h">
      <stop offset="0" stop-color="#fff" stop-opacity="0"/>
      <stop offset=".62" stop-color="#fff" stop-opacity="0"/>
      <stop offset=".72000003" stop-color="#fff"/>
      <stop offset=".80000001" stop-color="#fff" stop-opacity="0"/>
      <stop offset="1" stop-color="#fff" stop-opacity="0"/>
    </linearGradient>
    <linearGradient id="f">
      <stop offset="0" stop-color="#fff"/>
      <stop offset="1" stop-color="#fff" stop-opacity="0"/>
    </linearGradient>
    <linearGradient id="b">
      <stop offset="0" stop-color="gray" stop-opacity=".3137255"/>
      <stop offset=".28813559" stop-color="gray" stop-opacity="0"/>
      <stop offset="1" stop-color="gray" stop-opacity=".3137255"/>
    </linearGradient>
    <linearGradient xlink:href="#a" id="p" x1="31.0625" x2="35.40625" y1="36.203125" y2="36.203125" gradientTransform="translate(-299.20036 665.26416)" gradientUnits="userSpaceOnUse"/>
    <linearGradient xlink:href="#b" id="n" x1="31.0625" x2="35.40625" y1="36.203125" y2="36.203125" gradientTransform="translate(-299.20036 665.26416)" gradientUnits="userSpaceOnUse"/>
    <linearGradient xlink:href="#a" id="B" x1="31.0625" x2="35.40625" y1="36.203125" y2="36.203125" gradientTransform="translate(-289.18643 674.57648)" gradientUnits="userSpaceOnUse"/>
    <linearGradient xlink:href="#b" id="z" x1="31.0625" x2="35.40625" y1="36.203125" y2="36.203125" gradientTransform="translate(-289.18643 674.57648)" gradientUnits="userSpaceOnUse"/>
    <linearGradient xlink:href="#a" id="v" x1="31.0625" x2="35.40625" y1="36.203125" y2="36.203125" gradientTransform="translate(-309.21429 674.57648)" gradientUnits="userSpaceOnUse"/>
    <linearGradient xlink:href="#b" id="t" x1="31.0625" x2="35.40625" y1="36.203125" y2="36.203125" gradientTransform="translate(-309.21429 674.57648)" gradientUnits="userSpaceOnUse"/>
    <radialGradient xlink:href="#c" id="i" cx="10.741055" cy="34.213196" r="3.5718474" fx="9.7205276" fy="34.997261" gradientTransform="rotate(180 12.274036 37.145751) scale(1.17143)" gradientUnits="userSpaceOnUse"/>
    <radialGradient xlink:href="#d" id="j" cx="10.741055" cy="34.213196" r="3.5718474" fx="9.7205276" fy="34.997261" gradientTransform="matrix(-1.17178 0 0 -1.17143 24.551814 74.291502)" gradientUnits="userSpaceOnUse"/>
    <radialGradient xlink:href="#e" id="k" cx="10.741055" cy="34.213196" r="3.5718474" fx="9.7205276" fy="34.997261" gradientTransform="matrix(-1.17178 0 0 -1.17143 24.551814 74.291502)" gradientUnits="userSpaceOnUse"/>
    <radialGradient xlink:href="#f" id="r" cx="36.880184" cy="48.759171" r="8.796875" fx="36.907864" fy="43.353924" gradientTransform="matrix(.3816 .77618 -.25198 .12388 -264.64335 678.79323)" gradientUnits="userSpaceOnUse"/>
    <radialGradient xlink:href="#g" id="q" cx="33.234375" cy="46.734383" r="8.796875" fx="33.234375" fy="46.734383" gradientTransform="matrix(-1 0 0 -.56838 -232.73161 744.85847)" gradientUnits="userSpaceOnUse"/>
    <radialGradient xlink:href="#h" id="o" cx="33.234375" cy="30.883608" r="4.515625" fx="33.234375" fy="30.883608" gradientTransform="matrix(-1.1253 0 0 -.57491 -228.56704 714.36098)" gradientUnits="userSpaceOnUse"/>
    <radialGradient xlink:href="#f" id="D" cx="36.880184" cy="48.759171" r="8.796875" fx="36.907864" fy="43.353924" gradientTransform="matrix(.3816 .77618 -.25198 .12388 -254.62942 688.10555)" gradientUnits="userSpaceOnUse"/>
    <radialGradient xlink:href="#g" id="C" cx="33.234375" cy="46.734383" r="8.796875" fx="33.234375" fy="46.734383" gradientTransform="matrix(-1 0 0 -.56838 -222.71768 754.17079)" gradientUnits="userSpaceOnUse"/>
    <radialGradient xlink:href="#h" id="A" cx="33.234375" cy="30.883608" r="4.515625" fx="33.234375" fy="30.883608" gradientTransform="matrix(-1.1253 0 0 -.57491 -218.55311 723.6733)" gradientUnits="userSpaceOnUse"/>
    <radialGradient xlink:href="#f" id="x" cx="36.880184" cy="48.759171" r="8.796875" fx="36.907864" fy="43.353924" gradientTransform="matrix(.3816 .7601 -.25094 .12598 -274.70675 688.59326)" gradientUnits="userSpaceOnUse"/>
    <radialGradient xlink:href="#g" id="w" cx="33.234375" cy="46.734383" r="8.796875" fx="33.234375" fy="46.734383" gradientTransform="matrix(-1 0 0 -.56838 -242.74554 754.17079)" gradientUnits="userSpaceOnUse"/>
    <radialGradient xlink:href="#h" id="u" cx="33.234375" cy="30.883608" r="4.515625" fx="33.234375" fy="30.883608" gradientTransform="matrix(-1.1253 0 0 -.57491 -238.58097 723.6733)" gradientUnits="userSpaceOnUse"/>
    <filter id="l">
      <feGaussianBlur stdDeviation="1.0136719"/>
    </filter>
  </defs>
  <g transform="translate(309.21429 -674.57648)">
    <path fill="none" stroke="#000" stroke-linejoin="bevel" stroke-width="1.50000585" d="M-248.33231306 718.14025983a17.12683954 42.41569004 0 1 1-34.25367907 0 17.12683954 42.41569004 0 1 1 34.25367907 0z"/>
    <path fill="none" stroke="#000" stroke-linejoin="bevel" stroke-width="1.50000585" d="M-255.39873836 732.00087853a17.12683935 42.41568957 54.02685721 1 1-20.12081514-27.7212428 17.12683935 42.41568957 54.02685721 1 1 20.12081514 27.7212428z"/>
    <path fill="none" stroke="#000" stroke-linejoin="bevel" stroke-width="1.50000585" d="M-275.36439581 732.11217176a17.12683938 42.41568965-54.6656563 1 1 19.81050283-27.94384523 17.12683938 42.41568965-54.6656563 1 1-19.81050283 27.94384523z"/>
    <path fill="red" fill-rule="evenodd" d="M-294.28907 709.401992a3.57184745 3.57184745 0 1 1-7.1436949 0 3.57184745 3.57184745 0 1 1 7.1436949 0zm64.93108385 19.83651935a2.61510275 2.61510275 0 1 1-5.2302055 0 2.61510275 2.61510275 0 1 1 5.2302055 0z"/>
    <path fill="url(#i)" fill-rule="evenodd" d="M14.92522 34.825512a3.5718474 3.5718474 0 1 1-7.1436949 0 3.5718474 3.5718474 0 1 1 7.1436949 0z" transform="matrix(1.25 0 0 1.25 -298.59442 646.73521)"/>
    <path fill="url(#j)" fill-rule="evenodd" d="M14.92522 34.825512a3.5718474 3.5718474 0 1 1-7.1436949 0 3.5718474 3.5718474 0 1 1 7.1436949 0z" transform="matrix(1.25 0 0 1.25 -244.41835 651.88558)"/>
    <path fill="url(#k)" fill-rule="evenodd" d="M14.92522 34.825512a3.5718474 3.5718474 0 1 1-7.1436949 0 3.5718474 3.5718474 0 1 1 7.1436949 0z" transform="matrix(1.25 0 0 1.25 -272.31583 712.17656)"/>
    <path fill="#00f" fill-rule="evenodd" d="M-298.00409743 740.80709157a2.93401765 2.93401765 0 1 1-5.8680353 0 2.93401765 2.93401765 0 1 1 5.8680353 0zm44.59992128-6.84864422a4.40102648 4.40102648 0 1 1-8.80205295 0 4.40102648 4.40102648 0 1 1 8.80205295 0z"/>
    <path fill="#0f0" fill-rule="evenodd" d="M-246.96209243 696.39026957a3.82697951 3.82697951 0 1 1-7.65395903 0 3.82697951 3.82697951 0 1 1 7.65395903 0z"/>
    <path fill="#fff" fill-opacity=".50196078" fill-rule="evenodd" stroke="#fff" stroke-width="3" d="M43.25 20.28125c-2.523828-.000001-4.5625 1.00109-4.5625 2.25.000002.503639.24943.93643.8125 1.3125.659898.424219.39381 3.5754.375 5.4375-.007971.766403-1.626874 2.827576-3.3125 5.71875.042611-.930189.175718-1.670955.46875-1.875.50256-.34995.78125-.81941.78125-1.28125.000001-1.248909-2.06991-2.25-4.59375-2.25-2.523831 0-4.5625 1.00109-4.5625 2.25-.000001.503641.28068.93643.84375 1.3125.6599.424221.39381 3.5754.375 5.4375-.01677 1.612409-7.125 8.85558-7.125 17.8125 0 1.387498 6.44716 2.96875 10.46875 2.96875 3.379514 0 8.488615-1.092333 10.03125-2.28125 1.552046 1.174741 6.625125 2.28125 10 2.28125 4.020089 0 10.5-1.54906 10.5-2.96875.000002-8.956922-7.10823-16.20009-7.125-17.8125-.01881-1.862101-.21658-5.0133.4375-5.46875.502561-.34995.78125-.81941.78125-1.28125-.000001-1.248909-2.06991-2.25-4.59375-2.25-2.52383 0-4.5625 1.00109-4.5625 2.25 0 .503641.28068.93643.84375 1.3125.300302.193051.412511.963566.4375 1.90625-1.69877-2.924237-3.335722-5.009343-3.34375-5.78125-.018809-1.8621-.21658-5.0133.4375-5.46875.502559-.349949.75-.81941.75-1.28125 0-1.248911-2.03866-2.25-4.5625-2.25zm-.625 29.75c.203566.00704.43174.03125.625.03125.196961 0 .417333-.024079.625-.03125-.256882.754658-.446096 1.542769-.625 2.34375-.179001-.802081-.367798-1.588106-.625-2.34375z" filter="url(#l)" transform="translate(-309.21429 674.57648)"/>
    <path fill="#fff" fill-opacity=".50196078" fill-rule="evenodd" stroke="#666" stroke-width=".5" d="M-269.70527 698.42413c.6599.42422.38337 3.56944.36456 5.43154-.01677 1.61241-7.11751 8.86042-7.11751 17.81734 0 1.3875 6.46703 2.95371 10.48862 2.95371 4.02009 0 10.48862-1.53402 10.48862-2.95371 0-8.95692-7.10074-16.20493-7.11751-17.81734-.01881-1.8621-.22182-5.02382.43226-5.47927.50256-.34995.7688-.79931.7688-1.26115 0-1.24891-2.04834-2.26252-4.57218-2.26252-2.52383 0-4.57217 1.01361-4.57217 2.26252 0 .50364.27344.93281.83651 1.30888z"/>
    <use xlink:href="#m" fill-opacity=".50196078" fill-rule="evenodd"/>
    <path fill="url(#n)" fill-rule="evenodd" d="M-268.13786 695.13916v9.78125l-2.21875 3.71875h.0625c.55847-.51997 2.30381-1.0625 4.28125-1.0625 1.93516 0 3.72954.52151 4.34375 1.03125l-2.125-3.59375v-9.875h-4.34375z"/>
    <path fill="url(#o)" fill-rule="evenodd" d="M-265.98161 694.85791c-2.49782 0-4.5.95938-4.5 2.15625s2.00218 2.1875 4.5 2.1875 4.53125-.99063 4.53125-2.1875-2.03343-2.15625-4.53125-2.15625zm0 .1875c1.74327 0 3.15625.60744 3.15625 1.375s-1.41298 1.40625-3.15625 1.40625-3.15625-.63869-3.15625-1.40625 1.41298-1.375 3.15625-1.375z"/>
    <path fill="none" stroke="#999" stroke-linejoin="bevel" stroke-width=".25" d="M-262.811502 696.43178a3.1580999 1.3905066 0 1 1-6.316199 0 3.1580999 1.3905066 0 1 1 6.316199 0z"/>
    <path fill="url(#p)" fill-rule="evenodd" d="M-268.13786 698.92041v6l-2.21875 3.71875h.0625c.55847-.51997 2.30381-1.0625 4.28125-1.0625 1.93516 0 3.72954.52151 4.34375 1.03125l-2.125-3.59375v-6.09375c-.64822.17187-1.39469.28125-2.1875.28125-.78647 0-1.51168-.11193-2.15625-.28125z"/>
    <path fill="none" stroke="#666" stroke-linejoin="bevel" stroke-width=".5" d="M-261.444558 697.020986a4.5250387 2.1682477 0 1 1-9.050077 0 4.5250387 2.1682477 0 1 1 9.050077 0z"/>
    <path fill="url(#q)" fill-rule="evenodd" d="M-266.20036 718.29541c-3.95462 0-7.31373.752-8.53125 1.78125-.01461.24947-.03125.49704-.03125.75 0 1.16435 5.40644 2.46875 8.78125 2.46875 3.3457 0 8.72395-1.25465 8.8125-2.4375-.11647-1.41737-4.12413-2.5625-9.03125-2.5625z"/>
    <use xlink:href="#m" fill-opacity=".50196078" fill-rule="evenodd"/>
    <path fill="#fff" fill-opacity=".31372549" fill-rule="evenodd" d="M-262.010198 708.757801a4.0065446 1.1783954 0 1 1-8.013089 0 4.0065446 1.1783954 0 1 1 8.013089 0z"/>
    <path fill="url(#r)" fill-rule="evenodd" d="M-261.48031 708.82666c-.29201-.56526-2.32094-1.25-4.53255-1.25s-4.14653.68474-4.43854 1.25c-1.47436 2.85396-4.31146 7.11059-4.31146 12 0 1.16435 5.40644 2.46875 8.78125 2.46875 3.37355 0 8.8125-1.27738 8.8125-2.46875 0-4.88941-2.83684-9.14604-4.3112-12z"/>
    <path fill="#fff" fill-opacity=".50196078" fill-rule="evenodd" stroke="#666" stroke-width=".5" d="M-279.7192 707.73645c.6599.42422.38337 3.56944.36456 5.43154-.01677 1.61241-7.11751 8.86042-7.11751 17.81734 0 1.3875 6.46703 2.95371 10.48862 2.95371 4.02009 0 10.48862-1.53402 10.48862-2.95371 0-8.95692-7.10074-16.20493-7.11751-17.81734-.01881-1.8621-.22182-5.02382.43226-5.47927.50256-.34995.7688-.79931.7688-1.26115 0-1.24891-2.04834-2.26252-4.57218-2.26252-2.52383 0-4.57217 1.01361-4.57217 2.26252 0 .50364.27344.93281.83651 1.30888z"/>
    <use xlink:href="#s" fill-opacity=".50196078" fill-rule="evenodd"/>
    <path fill="url(#t)" fill-rule="evenodd" d="M-278.15179 704.45148v9.78125l-2.21875 3.71875h.0625c.55847-.51997 2.30381-1.0625 4.28125-1.0625 1.93516 0 3.72954.52151 4.34375 1.03125l-2.125-3.59375v-9.875h-4.34375z"/>
    <path fill="url(#u)" fill-rule="evenodd" d="M-275.99554 704.17023c-2.49782 0-4.5.95938-4.5 2.15625s2.00218 2.1875 4.5 2.1875 4.53125-.99063 4.53125-2.1875-2.03343-2.15625-4.53125-2.15625zm0 .1875c1.74327 0 3.15625.60744 3.15625 1.375s-1.41298 1.40625-3.15625 1.40625-3.15625-.63869-3.15625-1.40625 1.41298-1.375 3.15625-1.375z"/>
    <path fill="none" stroke="#999" stroke-linejoin="bevel" stroke-width=".25" d="M-272.825432 705.7441a3.1580999 1.3905066 0 1 1-6.316199 0 3.1580999 1.3905066 0 1 1 6.316199 0z"/>
    <path fill="url(#v)" fill-rule="evenodd" d="M-278.15179 708.23273v6l-2.21875 3.71875h.0625c.55847-.51997 2.30381-1.0625 4.28125-1.0625 1.93516 0 3.72954.52151 4.34375 1.03125l-2.125-3.59375v-6.09375c-.64822.17187-1.39469.28125-2.1875.28125-.78647 0-1.51168-.11193-2.15625-.28125z"/>
    <path fill="none" stroke="#666" stroke-linejoin="bevel" stroke-width=".5" d="M-271.458488 706.333306a4.5250387 2.1682477 0 1 1-9.050077 0 4.5250387 2.1682477 0 1 1 9.050077 0z"/>
    <path fill="url(#w)" fill-rule="evenodd" d="M-276.21429 727.60773c-3.95462 0-7.31373.752-8.53125 1.78125-.01461.24947-.03125.49704-.03125.75 0 1.16435 5.40644 2.46875 8.78125 2.46875 3.3457 0 8.72395-1.25465 8.8125-2.4375-.11647-1.41737-4.12413-2.5625-9.03125-2.5625z"/>
    <use xlink:href="#s" fill-opacity=".50196078" fill-rule="evenodd"/>
    <path fill="#fff" fill-opacity=".31372549" fill-rule="evenodd" d="M-272.024128 718.070121a4.0065446 1.1783954 0 1 1-8.013089 0 4.0065446 1.1783954 0 1 1 8.013089 0z"/>
    <path fill="url(#x)" fill-rule="evenodd" d="M-271.49424 718.13898c-.29201-.56526-2.32094-1.25-4.53255-1.25s-4.14653.68474-4.43854 1.25c-1.47436 2.85396-4.31146 7.11059-4.31146 12 0 1.16435 5.40644 2.46875 8.78125 2.46875 3.37355 0 8.8125-1.27738 8.8125-2.46875 0-4.88941-2.83684-9.14604-4.3112-12z"/>
    <path fill="#fff" fill-opacity=".50196078" fill-rule="evenodd" stroke="#666" stroke-width=".5" d="M-259.69134 707.73645c.6599.42422.38337 3.56944.36456 5.43154-.01677 1.61241-7.11751 8.86042-7.11751 17.81734 0 1.3875 6.46703 2.95371 10.48862 2.95371 4.02009 0 10.48862-1.53402 10.48862-2.95371 0-8.95692-7.10074-16.20493-7.11751-17.81734-.01881-1.8621-.22182-5.02382.43226-5.47927.50256-.34995.7688-.79931.7688-1.26115 0-1.24891-2.04834-2.26252-4.57218-2.26252-2.52383 0-4.57217 1.01361-4.57217 2.26252 0 .50364.27344.93281.83651 1.30888z"/>
    <use xlink:href="#y" fill-opacity=".50196078" fill-rule="evenodd"/>
    <path fill="url(#z)" fill-rule="evenodd" d="M-258.12393 704.45148v9.78125l-2.21875 3.71875h.0625c.55847-.51997 2.30381-1.0625 4.28125-1.0625 1.93516 0 3.72954.52151 4.34375 1.03125l-2.125-3.59375v-9.875h-4.34375z"/>
    <path fill="url(#A)" fill-rule="evenodd" d="M-255.96768 704.17023c-2.49782 0-4.5.95938-4.5 2.15625s2.00218 2.1875 4.5 2.1875 4.53125-.99063 4.53125-2.1875-2.03343-2.15625-4.53125-2.15625zm0 .1875c1.74327 0 3.15625.60744 3.15625 1.375s-1.41298 1.40625-3.15625 1.40625-3.15625-.63869-3.15625-1.40625 1.41298-1.375 3.15625-1.375z"/>
    <path fill="none" stroke="#999" stroke-linejoin="bevel" stroke-width=".25" d="M-252.797572 705.7441a3.1580999 1.3905066 0 1 1-6.316199 0 3.1580999 1.3905066 0 1 1 6.316199 0z"/>
    <path fill="url(#B)" fill-rule="evenodd" d="M-258.12393 708.23273v6l-2.21875 3.71875h.0625c.55847-.51997 2.30381-1.0625 4.28125-1.0625 1.93516 0 3.72954.52151 4.34375 1.03125l-2.125-3.59375v-6.09375c-.64822.17187-1.39469.28125-2.1875.28125-.78647 0-1.51168-.11193-2.15625-.28125z"/>
    <path fill="none" stroke="#666" stroke-linejoin="bevel" stroke-width=".5" d="M-251.430628 706.333306a4.5250387 2.1682477 0 1 1-9.050077 0 4.5250387 2.1682477 0 1 1 9.050077 0z"/>
    <path fill="url(#C)" fill-rule="evenodd" d="M-256.18643 727.60773c-3.95462 0-7.31373.752-8.53125 1.78125-.01461.24947-.03125.49704-.03125.75 0 1.16435 5.40644 2.46875 8.78125 2.46875 3.3457 0 8.72395-1.25465 8.8125-2.4375-.11647-1.41737-4.12413-2.5625-9.03125-2.5625z"/>
    <use xlink:href="#y" fill-opacity=".50196078" fill-rule="evenodd"/>
    <path fill="#fff" fill-opacity=".31372549" fill-rule="evenodd" d="M-251.996268 718.070121a4.0065446 1.1783954 0 1 1-8.013089 0 4.0065446 1.1783954 0 1 1 8.013089 0z"/>
    <path fill="url(#D)" fill-rule="evenodd" d="M-251.46638 718.13898c-.29201-.56526-2.32094-1.25-4.53255-1.25s-4.14653.68474-4.43854 1.25c-1.47436 2.85396-4.31146 7.11059-4.31146 12 0 1.16435 5.40644 2.46875 8.78125 2.46875 3.37355 0 8.8125-1.27738 8.8125-2.46875 0-4.88941-2.83684-9.14604-4.3112-12z"/>
  </g>
</svg>