<?xml version="1.0" encoding="UTF-8" standalone="no"?>
<!-- Created with Inkscape (http://www.inkscape.org/) -->

<svg
   version="1.0"
   width="400"
   height="360"
   id="svg2"
   sodipodi:docname="P_train-blue.svg"
   inkscape:version="1.3.2 (091e20ef0f, 2023-11-25, custom)"
   xml:space="preserve"
   xmlns:inkscape="http://www.inkscape.org/namespaces/inkscape"
   xmlns:sodipodi="http://sodipodi.sourceforge.net/DTD/sodipodi-0.dtd"
   xmlns:xlink="http://www.w3.org/1999/xlink"
   xmlns="http://www.w3.org/2000/svg"
   xmlns:svg="http://www.w3.org/2000/svg"
   xmlns:rdf="http://www.w3.org/1999/02/22-rdf-syntax-ns#"
   xmlns:cc="http://creativecommons.org/ns#"
   xmlns:dc="http://purl.org/dc/elements/1.1/"><metadata
     id="metadata12"><rdf:RDF><cc:Work
         rdf:about=""><dc:format>image/svg+xml</dc:format><dc:type
           rdf:resource="http://purl.org/dc/dcmitype/StillImage" /></cc:Work></rdf:RDF></metadata><sodipodi:namedview
     pagecolor="#ffffff"
     bordercolor="#666666"
     borderopacity="1"
     objecttolerance="10"
     gridtolerance="10"
     guidetolerance="10"
     inkscape:pageopacity="0"
     inkscape:pageshadow="2"
     inkscape:window-width="1920"
     inkscape:window-height="1015"
     id="namedview10"
     showgrid="false"
     showguides="false"
     inkscape:zoom="1.3111111"
     inkscape:cx="38.135594"
     inkscape:cy="167.0339"
     inkscape:window-x="0"
     inkscape:window-y="0"
     inkscape:window-maximized="1"
     inkscape:current-layer="svg2"
     inkscape:showpageshadow="2"
     inkscape:pagecheckerboard="0"
     inkscape:deskcolor="#d1d1d1" /><defs
     id="defs4"><linearGradient
       x1="92.604424"
       y1="304.50995"
       x2="263.82959"
       y2="26.290426"
       id="linearGradient3199"
       xlink:href="#linearGradient2889"
       gradientUnits="userSpaceOnUse" /><linearGradient
       id="linearGradient2889"><stop
         style="stop-color:#a0a3e1;stop-opacity:1"
         offset="0"
         id="stop2891" /><stop
         style="stop-color:#dedcfa;stop-opacity:1"
         offset="1"
         id="stop2893" /></linearGradient><linearGradient
       id="linearGradient5590"
       y2="173.17"
       xlink:href="#linearGradient5546"
       spreadMethod="reflect"
       gradientUnits="userSpaceOnUse"
       x2="2.7650001"
       gradientTransform="matrix(0.9610401,0,0,0.9610402,91.679548,18.669998)"
       y1="154.08"
       x1="-38.890999" /><linearGradient
       id="linearGradient5546"><stop
         id="stop5548"
         stop-color="#d9d9d9"
         offset="0" /><stop
         id="stop5554"
         stop-color="#b8b8b8"
         offset="0.1157" /><stop
         id="stop5556"
         stop-color="#989898"
         offset="0.31556" /><stop
         id="stop5550"
         stop-color="#646464"
         offset="1" /></linearGradient><linearGradient
       id="linearGradient5395"
       y2="193.73"
       gradientUnits="userSpaceOnUse"
       x2="136.42999"
       gradientTransform="matrix(0.9610401,0,0,0.9610402,5.3826041,3.1134884)"
       y1="193.73"
       x1="65.227997"><stop
         id="stop5170"
         stop-color="#878787"
         offset="0" /><stop
         id="stop5176"
         stop-color="#9b9b9b"
         offset="0.45" /><stop
         id="stop5178"
         stop-color="#9b9b9b"
         offset="0.55" /><stop
         id="stop5172"
         stop-color="#878787"
         offset="1" /></linearGradient><linearGradient
       id="linearGradient5390"
       y2="211.32001"
       xlink:href="#linearGradient2222"
       gradientUnits="userSpaceOnUse"
       x2="137.5"
       gradientTransform="matrix(0.9610401,0,0,0.9610402,5.3922756,-8.3703234)"
       y1="211.32001"
       x1="62.860001" /><linearGradient
       id="linearGradient2222"><stop
         id="stop2224"
         stop-color="#818181"
         offset="0" /><stop
         id="stop3200"
         stop-color="#e6e6e6"
         offset="0.45" /><stop
         id="stop3202"
         stop-color="#e6e6e6"
         offset="0.55" /><stop
         id="stop2226"
         stop-color="#818181"
         offset="1" /></linearGradient><linearGradient
       id="linearGradient5392"
       y2="213.37"
       xlink:href="#linearGradient4173"
       gradientUnits="userSpaceOnUse"
       x2="137.73"
       gradientTransform="matrix(0.9610401,0,0,0.9610402,5.3922756,-8.3703234)"
       y1="213.37"
       x1="62.860001" /><linearGradient
       id="linearGradient4173"><stop
         id="stop4175"
         stop-color="#444"
         offset="0" /><stop
         id="stop4181"
         stop-color="#a7a7a7"
         offset="0.45" /><stop
         id="stop4183"
         stop-color="#a7a7a7"
         offset="0.55" /><stop
         id="stop4177"
         stop-color="#444"
         offset="1" /></linearGradient><linearGradient
       id="linearGradient5384"
       y2="211.32001"
       xlink:href="#linearGradient2222"
       gradientUnits="userSpaceOnUse"
       x2="137.5"
       gradientTransform="matrix(0.8352892,0,0,0.6970898,18.004109,40.213983)"
       y1="211.32001"
       x1="62.860001" /><linearGradient
       id="linearGradient5386"
       y2="213.37"
       xlink:href="#linearGradient4173"
       gradientUnits="userSpaceOnUse"
       x2="137.73"
       gradientTransform="matrix(0.8352892,0,0,0.6970898,18.004109,40.213983)"
       y1="213.37"
       x1="62.860001" /><linearGradient
       id="linearGradient5381"
       y2="191.25"
       gradientUnits="userSpaceOnUse"
       x2="115.13"
       gradientTransform="matrix(0.9610401,0,0,0.9610402,5.1158809,0.087885)"
       y1="191.25"
       x1="84.375"><stop
         id="stop5283"
         stop-color="#4c4c4c"
         stop-opacity="0"
         offset="0" /><stop
         id="stop5289"
         stop-color="#696969"
         offset="0.45" /><stop
         id="stop5291"
         stop-color="#696969"
         offset="0.55" /><stop
         id="stop5285"
         stop-color="#4b4b4b"
         stop-opacity="0"
         offset="1" /></linearGradient><linearGradient
       id="linearGradient5430"
       y2="172.19"
       gradientUnits="userSpaceOnUse"
       x2="100.5"
       gradientTransform="matrix(1.0776601,0,0,0.9867354,-6.2888377,6.220097)"
       y1="171.31"
       x1="100.5"><stop
         id="stop5299"
         stop-color="#5c5c5c"
         offset="0" /><stop
         id="stop5301"
         stop-color="#6e6e6e"
         offset="1" /></linearGradient><linearGradient
       id="linearGradient5489"
       y2="30.781"
       gradientUnits="userSpaceOnUse"
       x2="-160.35001"
       gradientTransform="translate(203.02758,10.341437)"
       y1="30.781"
       x1="-149.55"><stop
         id="stop5485"
         stop-color="#3d3d3d"
         offset="0" /><stop
         id="stop5487"
         stop-color="#3d3d3d"
         stop-opacity="0"
         offset="1" /></linearGradient><linearGradient
       id="linearGradient5528"
       y2="29.562"
       spreadMethod="reflect"
       gradientUnits="userSpaceOnUse"
       x2="104"
       gradientTransform="matrix(0.9610401,0,0,0.9610402,5.9099672,4.0594995)"
       y1="29.562"
       x1="98.869003"><stop
         id="stop5524"
         stop-color="#9e9e9e"
         offset="0" /><stop
         id="stop5530"
         stop-color="#999"
         offset="0.2" /><stop
         id="stop5526"
         stop-color="#6c6c6c"
         offset="1" /></linearGradient><linearGradient
       id="linearGradient5416"
       y2="107.94"
       xlink:href="#linearGradient5410"
       spreadMethod="reflect"
       gradientUnits="userSpaceOnUse"
       x2="117.22"
       gradientTransform="matrix(0.9610401,0,0,0.9610402,-6.5464743,4.0594995)"
       y1="107.94"
       x1="111.62" /><linearGradient
       id="linearGradient5410"><stop
         id="stop5412"
         stop-color="#bfbfbf"
         offset="0" /><stop
         id="stop5421"
         stop-color="#828282"
         offset="0.95" /><stop
         id="stop5414"
         stop-color="#828282"
         offset="1" /></linearGradient><linearGradient
       id="linearGradient5408"
       y2="149.22"
       gradientUnits="userSpaceOnUse"
       x2="104.65"
       gradientTransform="matrix(0.9610401,0,0,0.9610402,5.5156734,4.0594995)"
       y1="149.22"
       x1="95.989998"><stop
         id="stop5404"
         stop-color="#808080"
         offset="0" /><stop
         id="stop5406"
         stop-color="#535353"
         offset="1" /></linearGradient><radialGradient
       id="radialGradient5453"
       gradientUnits="userSpaceOnUse"
       cy="5.1875"
       cx="98.5"
       gradientTransform="matrix(0.757066,0.790695,-0.8837761,0.8461785,28.513592,-77.085512)"
       r="5.5"><stop
         id="stop5449"
         stop-color="#dcdcdc"
         offset="0" /><stop
         id="stop5451"
         stop-color="#434343"
         offset="1" /></radialGradient><linearGradient
       id="linearGradient5568"
       y2="173.17"
       xlink:href="#linearGradient5546"
       spreadMethod="reflect"
       gradientUnits="userSpaceOnUse"
       x2="2.7650001"
       gradientTransform="matrix(0.9610401,0,0,0.9610402,204.00111,18.669998)"
       y1="154.08"
       x1="-38.890999" /><linearGradient
       id="linearGradient5564"
       y2="166.82001"
       xlink:href="#linearGradient5558"
       gradientUnits="userSpaceOnUse"
       x2="-45.608002"
       gradientTransform="matrix(0.9610401,0,0,0.9610402,204.00111,4.0594995)"
       y1="131.75999"
       x1="-45.608002" /><linearGradient
       id="linearGradient5558"><stop
         id="stop5560"
         stop-color="#999"
         offset="0" /><stop
         id="stop5562"
         stop-color="#525252"
         offset="1" /></linearGradient><linearGradient
       id="linearGradient5552"
       y2="170.35001"
       xlink:href="#linearGradient5546"
       spreadMethod="reflect"
       gradientUnits="userSpaceOnUse"
       x2="-5.0131001"
       gradientTransform="matrix(0.9610401,0,0,0.9610402,204.00111,18.669998)"
       y1="168.92999"
       x1="-49.497002" /><linearGradient
       id="linearGradient5588"
       y2="166.82001"
       xlink:href="#linearGradient5558"
       gradientUnits="userSpaceOnUse"
       x2="-45.608002"
       gradientTransform="matrix(-0.9610401,0,0,0.9610402,-0.3255689,4.0594995)"
       y1="131.75999"
       x1="-45.608002" /><linearGradient
       id="linearGradient5592"
       y2="166.82001"
       xlink:href="#linearGradient5558"
       gradientUnits="userSpaceOnUse"
       x2="-45.608002"
       gradientTransform="matrix(0.9074747,-0.3163665,0.3163664,0.9074748,74.97152,-7.8955071)"
       y1="131.75999"
       x1="-45.608002" /><linearGradient
       id="linearGradient5594"
       y2="170.35001"
       xlink:href="#linearGradient5546"
       spreadMethod="reflect"
       gradientUnits="userSpaceOnUse"
       x2="-5.0131001"
       gradientTransform="matrix(0.9610401,0,0,0.9610402,91.679548,18.669998)"
       y1="168.92999"
       x1="-49.497002" /><linearGradient
       x1="230.125"
       y1="206.5"
       x2="201.875"
       y2="128.5"
       id="linearGradient3970"
       xlink:href="#linearGradient3964"
       gradientUnits="userSpaceOnUse" /><linearGradient
       id="linearGradient3964"><stop
         style="stop-color:black;stop-opacity:1"
         offset="0"
         id="stop3966" /><stop
         style="stop-color:white;stop-opacity:1"
         offset="1"
         id="stop3968" /></linearGradient><linearGradient
       x1="210.25703"
       y1="170.84894"
       x2="192.0867"
       y2="125.59411"
       id="linearGradient3944"
       xlink:href="#linearGradient3938"
       gradientUnits="userSpaceOnUse" /><linearGradient
       id="linearGradient3938"><stop
         style="stop-color:#6b6b6b;stop-opacity:1"
         offset="0"
         id="stop3940" /><stop
         style="stop-color:#d5d5d5;stop-opacity:1"
         offset="1"
         id="stop3942" /></linearGradient><radialGradient
       cx="126.96671"
       cy="60.548233"
       r="38.593609"
       fx="126.96671"
       fy="60.548233"
       id="radialGradient2973"
       xlink:href="#linearGradient2965"
       gradientUnits="userSpaceOnUse"
       gradientTransform="matrix(0.828879,0.01120816,-0.03007379,2.224046,28.98796,-87.07468)" /><linearGradient
       id="linearGradient2965"><stop
         style="stop-color:white;stop-opacity:1"
         offset="0"
         id="stop2967" /><stop
         style="stop-color:#3f3f3f;stop-opacity:1"
         offset="1"
         id="stop2969" /></linearGradient><linearGradient
       x1="162.625"
       y1="190"
       x2="124.875"
       y2="141"
       id="linearGradient2941"
       xlink:href="#linearGradient2935"
       gradientUnits="userSpaceOnUse" /><linearGradient
       id="linearGradient2935"><stop
         style="stop-color:black;stop-opacity:1"
         offset="0"
         id="stop2937" /><stop
         style="stop-color:black;stop-opacity:0"
         offset="1"
         id="stop2939" /></linearGradient><linearGradient
       id="a"><stop
         offset="0"
         stop-color="#3771c8"
         id="stop1" /><stop
         offset="1"
         stop-color="#3771c8"
         stop-opacity="0"
         id="stop2" /></linearGradient><linearGradient
       xlink:href="#a"
       id="b"
       x1="100.98755"
       x2="404.54227"
       y1="184.63622"
       y2="166.74202"
       gradientUnits="userSpaceOnUse"
       gradientTransform="rotate(-31.61,211.43011,146.23801)" /></defs><path
     fill="url(#b)"
     d="M 361.81074,80.414432 A 152,190 58.39 1 1 38.18926,279.58557 152,190 58.39 1 1 361.81074,80.414432 Z"
     id="path2"
     style="fill:url(#b)" /><g
     transform="translate(-16.114454,-5.1851675)"
     id="g46368"><path
       inkscape:connector-curvature="0"
       id="path3978"
       style="opacity:0.3;fill:#000000;fill-opacity:1;fill-rule:evenodd;stroke:none;stroke-width:1px;stroke-linecap:butt;stroke-linejoin:miter;stroke-opacity:1"
       d="m 82,301 c 0,0 16,52 21,53 5,1 103,-23 105,-28 2,-5 -2,-16 -2,-16 l 18,-6 c 0,0 6,10 14,8 8,-2 13,-24 13,-24 l 5,-1.25 c 0,0 7,14.5 14,11 7,-3.5 13.25,-26.75 13.25,-26.75 l 10.25,-4.25 c 0,0 10.5,7.25 17.25,-1.75 6.75,-9 7.25,-25.25 7.25,-25.25 0,0 8.75,-12.75 13.5,-23.25 C 336.25,206 340,197 340,197 l 22.25,-14.25 -12.5,-10.5 L 355,84 233,76 194.5,80 c 0,0 8.5,-38.5 5,-43.5 C 196,31.5 177,26 160,26 c -17,0 -35.5,3 -37.5,6.5 -2,3.5 8,102.5 8,102.5 0,0 -22,13 -23.5,32.5 -1.5,19.5 12.25,42.25 12.25,42.25 l -4.5,29 z" /><rect
       id="rect3972"
       style="opacity:1;fill:#000000;fill-opacity:1;stroke:none;stroke-width:3.75;stroke-linecap:round;stroke-linejoin:round;stroke-miterlimit:4;stroke-dasharray:none;stroke-opacity:1"
       y="164"
       x="154"
       height="77"
       width="152" /><path
       inkscape:connector-curvature="0"
       id="path3954"
       style="fill:url(#linearGradient3970);fill-opacity:1;fill-rule:evenodd;stroke:#000000;stroke-width:3.75;stroke-linecap:butt;stroke-linejoin:miter;stroke-miterlimit:4;stroke-dasharray:none;stroke-opacity:1"
       d="M 170,225 283,175 250,138 142,195" /><path
       inkscape:connector-curvature="0"
       id="path3976"
       style="fill:#d5d5d5;fill-opacity:1;fill-rule:evenodd;stroke:#000000;stroke-width:3.75;stroke-linecap:butt;stroke-linejoin:round;stroke-miterlimit:4;stroke-dasharray:none;stroke-opacity:1"
       d="m 158,75 65,-7 121,9 -68,58" /><path
       inkscape:connector-curvature="0"
       id="path3950"
       style="fill:#6b6b6b;fill-opacity:1;fill-rule:evenodd;stroke:#000000;stroke-width:3.75;stroke-linecap:butt;stroke-linejoin:miter;stroke-miterlimit:4;stroke-dasharray:none;stroke-opacity:1"
       d="m 337.28993,171.9096 6.36397,-94.045206 -66.22897,6.443651 -113.20458,-8.736544 -14.84403,70.528699 65.9377,-35.7089 66.11448,82.7315" /><use
       xlink:href="#path3932"
       height="360"
       width="400"
       y="0"
       x="0"
       id="use3952"
       transform="matrix(-1,0,0,1,447,0)" /><path
       inkscape:connector-curvature="0"
       id="path3920"
       style="fill:#1f1f1f;fill-opacity:1;fill-rule:evenodd;stroke:#000000;stroke-width:7.5;stroke-linecap:butt;stroke-linejoin:miter;stroke-miterlimit:4;stroke-dasharray:none;stroke-opacity:1"
       d="m 219.5,286 c -31.33219,23.83359 -50.04091,-1.39566 -5.5,-13.5 -39.54713,12.45411 -66.04557,-18.31761 2.5,-26 -43.76265,9.1729 -77.64525,-24.08797 0.5,-28" /><path
       inkscape:connector-curvature="0"
       id="path2955"
       style="fill:#6b6b6b;fill-opacity:1;fill-rule:evenodd;stroke:#000000;stroke-width:3.75;stroke-linecap:butt;stroke-linejoin:miter;stroke-miterlimit:4;stroke-dasharray:none;stroke-opacity:1"
       d="m 113.5,192 c -6.61775,19.82837 -7.88117,33.45698 -5.55025,42.92373 L 178,236.5 c 0.39714,-17.87055 -6.06282,-31.74113 -11,-46.5" /><path
       inkscape:connector-curvature="0"
       id="path2943"
       style="fill:#d5d5d5;fill-opacity:1;fill-rule:evenodd;stroke:#000000;stroke-width:3.75;stroke-linecap:butt;stroke-linejoin:miter;stroke-miterlimit:4;stroke-dasharray:none;stroke-opacity:1"
       d="m 106.06602,230.59946 c -11.313709,23.098 -22.627419,44.06912 -33.941128,61.51829 8.024235,16.6973 14.765331,50.23743 24.748738,50.20458 11.27054,-0.0371 91.03229,-17.4481 99.70205,-26.16295 6.34904,-6.38207 -18.00212,-90.12701 -16.97056,-89.09545 -29.12762,13.13665 -49.93615,6.97288 -73.5391,3.53553 z" /><path
       inkscape:connector-curvature="0"
       id="path1979"
       style="fill:none;fill-opacity:0.75;fill-rule:evenodd;stroke:#000000;stroke-width:3.75;stroke-linecap:round;stroke-linejoin:miter;stroke-miterlimit:4;stroke-opacity:1"
       d="m 172.38095,244.7619 6.66667,63.80953 m -17.66667,-63.80953 -1.95238,65.76191 m -10.38095,-64.80952 -11.66667,70.09523 m 0.2381,-70.09523 -19.66667,81.33333 m 10.61905,-81.33333 -26.61905,77.47619 m 17.95238,-77.90477 -26.142855,62.52381 m 15.619045,-62.66666 -21.904759,43.80952" /><path
       inkscape:connector-curvature="0"
       id="path2957"
       style="fill:#a2a2a2;fill-opacity:1;fill-rule:evenodd;stroke:#000000;stroke-width:1.00000012px;stroke-linecap:butt;stroke-linejoin:miter;stroke-opacity:1"
       d="m 115.75808,195.46589 c -10.34676,24.64492 8.9772,23.25019 25.2293,23.96961 16.25211,0.71942 33.60092,1.27003 27.88196,-20.01363" /><g
       id="g3946"><path
         inkscape:connector-curvature="0"
         id="path3934"
         style="fill:url(#linearGradient3944);fill-opacity:1;fill-rule:evenodd;stroke:#000000;stroke-width:3.75;stroke-linecap:butt;stroke-linejoin:round;stroke-miterlimit:4;stroke-dasharray:none;stroke-opacity:1"
         d="m 166.8772,202.31519 88.38834,-40.30509 c -0.2383,-26.05322 -8.26,-47.88862 -38.18376,-50.91169 l -79.90306,14.14214" /><path
         inkscape:connector-curvature="0"
         id="path3936"
         style="fill:none;fill-opacity:0.75;fill-rule:evenodd;stroke:#000000;stroke-width:3.75;stroke-linecap:butt;stroke-linejoin:round;stroke-miterlimit:4;stroke-dasharray:none;stroke-opacity:1"
         d="m 185.96909,116.75526 c 32.00434,13.56982 37.97484,41.61546 35.35533,60.45764" /></g><path
       inkscape:connector-curvature="0"
       id="path2959"
       style="fill:url(#radialGradient2973);fill-opacity:1;fill-rule:evenodd;stroke:#000000;stroke-width:3.75;stroke-linecap:butt;stroke-linejoin:miter;stroke-miterlimit:4;stroke-dasharray:none;stroke-opacity:1"
       d="m 124.80434,144.33243 c 0,0 -16.26346,-116.319064 -9.19239,-120.915258 7.07107,-4.596194 62.57895,-10.253048 70.35712,3.181981 7.77817,13.435029 -21.92031,115.611957 -21.92031,115.611957" /><path
       inkscape:connector-curvature="0"
       id="path2953"
       style="opacity:1;fill:#d5d5d5;fill-opacity:1;stroke:#000000;stroke-width:3.75;stroke-linecap:round;stroke-miterlimit:4;stroke-dasharray:none;stroke-opacity:1"
       transform="translate(2.828428,-2.828428)"
       d="m 187.3833,169.78827 a 45.961942,45.961942 0 1 1 -91.923885,0 45.961943,45.961943 0 1 1 91.923885,0 z" /><path
       inkscape:connector-curvature="0"
       id="path2881"
       style="opacity:1;fill:#000000;fill-opacity:1;stroke:none;stroke-width:1.92567611;stroke-linecap:round;stroke-miterlimit:4;stroke-dasharray:none;stroke-opacity:1"
       transform="matrix(1.947368,0,0,1.947368,-134.8872,-153.4185)"
       d="m 151.42857,166.66667 a 9.04762,9.04762 0 1 1 -18.09524,0 9.04762,9.04762 0 1 1 18.09524,0 z" /><path
       inkscape:connector-curvature="0"
       id="path1993"
       style="opacity:1;fill:#dbdbdb;fill-opacity:1;stroke:none;stroke-width:3.75;stroke-linecap:round;stroke-miterlimit:4;stroke-dasharray:none;stroke-opacity:1"
       d="m 151.42857,166.66667 a 9.04762,9.04762 0 1 1 -18.09524,0 9.04762,9.04762 0 1 1 18.09524,0 z" /><path
       inkscape:connector-curvature="0"
       id="path2883"
       style="fill:none;fill-opacity:0.75;fill-rule:evenodd;stroke:url(#linearGradient2941);stroke-width:3.75;stroke-linecap:round;stroke-linejoin:miter;stroke-miterlimit:4;stroke-opacity:1"
       d="m 159.5,186.5 6.5,8.5 m -1,-18.5 10.5,8 m -9,-19 13.5,4 M 164.5,158 176,151.5 m -25.5,39.5 5,11 m -13,-8.99999 0.5,12.5 M 134,192.5 130,204 m -2.5,-15.5 -7,9 m 37,-46.5 11,-10.5 m -18,7 c 0.5,-2.5 6,-14 6,-14 m -13,14 1,-16 M 136,150 131,136 m -2,17.5 -9,-10 m 3.5,16.5 -11.5,-5 m 10.5,13.5 -12,-0.5 m 12,7.5 -12,2 m 13,5 -8,5" /><path
       inkscape:connector-curvature="0"
       id="path2963"
       style="fill:#6b6b6b;fill-opacity:1;fill-rule:evenodd;stroke:none;stroke-width:1px;stroke-linecap:butt;stroke-linejoin:miter;stroke-opacity:1"
       d="m 141.5981,18.644201 c -25.55394,1.06066 -26.51651,8.838834 -26.51651,8.838834 18.41112,6.062291 42.15669,6.460626 69.47325,-0.530329 -3.93158,-4.494776 -10.14742,-7.954952 -22.45065,-7.954952" /><path
       inkscape:connector-curvature="0"
       id="path3918"
       style="fill:#000000;fill-opacity:1;fill-rule:evenodd;stroke:none;stroke-width:1px;stroke-linecap:butt;stroke-linejoin:miter;stroke-opacity:1"
       d="m 227.5,291.5 c 5,-15 31.5,-12.5 34,-20.5 2.5,-8 25,-14.5 29,-18 4,-3.5 50,-63.5 37.5,-77.5 -12.5,-14 -41,50 -41,50 l -66,32" /><g
       id="g3900"><path
         inkscape:connector-curvature="0"
         id="path2986"
         style="opacity:1;fill:#e4e4e4;fill-opacity:1;stroke:#000000;stroke-width:3.75;stroke-linecap:round;stroke-miterlimit:4;stroke-dasharray:none;stroke-opacity:1"
         d="m 240.4163,254.99464 a 15.379573,47.72971 0 1 1 -30.75914,0 15.379573,47.72971 0 1 1 30.75914,0 z" /><g
         id="g3890"
         style="opacity:0.8"><path
           inkscape:connector-curvature="0"
           id="path3873"
           style="fill:none;fill-opacity:0.75;fill-rule:evenodd;stroke:#000000;stroke-width:3.75;stroke-linecap:butt;stroke-linejoin:miter;stroke-miterlimit:4;stroke-dasharray:none;stroke-opacity:1"
           d="m 224.85996,206.91138 v 95.10586" /><path
           inkscape:connector-curvature="0"
           id="path3875"
           style="fill:none;fill-opacity:0.75;fill-rule:evenodd;stroke:#000000;stroke-width:3.75;stroke-linecap:butt;stroke-linejoin:miter;stroke-miterlimit:4;stroke-dasharray:none;stroke-opacity:1"
           d="m 209.65716,253.58043 30.75915,0.35355" /><path
           inkscape:connector-curvature="0"
           id="path3877"
           style="fill:none;fill-opacity:0.75;fill-rule:evenodd;stroke:#000000;stroke-width:3.75;stroke-linecap:butt;stroke-linejoin:miter;stroke-miterlimit:4;stroke-dasharray:none;stroke-opacity:1"
           d="m 235.113,219.99286 -20.50609,68.94291" /><path
           inkscape:connector-curvature="0"
           id="path3879"
           style="fill:none;fill-opacity:0.75;fill-rule:evenodd;stroke:#000000;stroke-width:3.75;stroke-linecap:butt;stroke-linejoin:miter;stroke-miterlimit:4;stroke-dasharray:none;stroke-opacity:1"
           d="m 214.25335,221.05352 21.92032,65.76093" /><path
           inkscape:connector-curvature="0"
           id="path3881"
           style="fill:none;fill-opacity:0.75;fill-rule:evenodd;stroke:#000000;stroke-width:3.75;stroke-linecap:butt;stroke-linejoin:miter;stroke-miterlimit:4;stroke-dasharray:none;stroke-opacity:1"
           d="M 231.22392,211.50758 218.496,298.12816" /><path
           inkscape:connector-curvature="0"
           id="path3883"
           style="fill:none;fill-opacity:0.75;fill-rule:evenodd;stroke:#000000;stroke-width:3.75;stroke-linecap:butt;stroke-linejoin:miter;stroke-miterlimit:4;stroke-dasharray:none;stroke-opacity:1"
           d="m 217.43534,212.56824 14.49568,84.1457" /><path
           inkscape:connector-curvature="0"
           id="path3885"
           style="fill:none;fill-opacity:0.75;fill-rule:evenodd;stroke:#000000;stroke-width:3.75;stroke-linecap:butt;stroke-linejoin:miter;stroke-miterlimit:4;stroke-dasharray:none;stroke-opacity:1"
           d="m 239.35565,238.73119 -28.99138,31.1127" /><path
           inkscape:connector-curvature="0"
           id="path3887"
           style="fill:none;fill-opacity:0.75;fill-rule:evenodd;stroke:#000000;stroke-width:3.75;stroke-linecap:butt;stroke-linejoin:miter;stroke-miterlimit:4;stroke-dasharray:none;stroke-opacity:1"
           d="m 210.71782,239.08474 28.99138,29.69849" /></g></g><path
       inkscape:connector-curvature="0"
       id="path3922"
       style="fill:#6b6b6b;fill-opacity:1;fill-rule:evenodd;stroke:#000000;stroke-width:3.75;stroke-linecap:butt;stroke-linejoin:round;stroke-miterlimit:4;stroke-dasharray:none;stroke-opacity:1"
       d="m 277.5,196.5 14,11 L 350,173 335.5,161.5 Z" /><use
       xlink:href="#g3900"
       height="360"
       width="400"
       y="0"
       x="0"
       id="use3912"
       transform="translate(32.5,-16.5)" /><use
       xlink:href="#g3900"
       height="360"
       width="400"
       y="0"
       x="0"
       id="use3914"
       transform="matrix(1,0,0,0.543563,66,93.80826)" /><path
       inkscape:connector-curvature="0"
       id="path3916"
       style="fill:none;fill-opacity:0.75;fill-rule:evenodd;stroke:#000000;stroke-width:7.5;stroke-linecap:round;stroke-linejoin:miter;stroke-miterlimit:4;stroke-dasharray:none;stroke-opacity:1"
       d="m 224,253 34.5,-15.5 33,-6" /><path
       inkscape:connector-curvature="0"
       id="path3924"
       style="fill:#d5d5d5;fill-opacity:1;fill-rule:evenodd;stroke:#000000;stroke-width:3.75;stroke-linecap:butt;stroke-linejoin:miter;stroke-miterlimit:4;stroke-dasharray:none;stroke-opacity:1"
       d="M 287,186.5 V 164 l 40.5,-16 v 16.5 z" /><path
       inkscape:connector-curvature="0"
       id="path3926"
       style="fill:#000000;fill-opacity:1;fill-rule:evenodd;stroke:#ffffff;stroke-width:3.75;stroke-linecap:butt;stroke-linejoin:round;stroke-miterlimit:4;stroke-dasharray:none;stroke-opacity:1"
       d="M 285.5,156 V 89 H 333 v 50.5 z" /><path
       inkscape:connector-curvature="0"
       id="path3928"
       style="fill:none;fill-opacity:0.75;fill-rule:evenodd;stroke:#ffffff;stroke-width:3.75;stroke-linecap:butt;stroke-linejoin:miter;stroke-miterlimit:4;stroke-dasharray:none;stroke-opacity:1"
       d="m 316.5,90 v 54" /><path
       inkscape:connector-curvature="0"
       id="path3930"
       style="fill:none;fill-opacity:0.75;fill-rule:evenodd;stroke:#ffffff;stroke-width:3.75;stroke-linecap:butt;stroke-linejoin:miter;stroke-miterlimit:4;stroke-dasharray:none;stroke-opacity:1"
       d="M 316.5,119 H 333" /><path
       inkscape:connector-curvature="0"
       id="path3932"
       style="fill:#000000;fill-opacity:1;fill-rule:evenodd;stroke:#ffffff;stroke-width:3.75;stroke-linecap:butt;stroke-linejoin:round;stroke-miterlimit:4;stroke-dasharray:none;stroke-opacity:1"
       d="m 270.25,144.5 v -55 h -41.5 v 11 z" /><path
       inkscape:connector-curvature="0"
       id="path3974"
       style="fill:none;fill-opacity:0.75;fill-rule:evenodd;stroke:#000000;stroke-width:3.75000119;stroke-linecap:butt;stroke-linejoin:miter;stroke-miterlimit:4;stroke-dasharray:none;stroke-opacity:1"
       d="M 277.5,83.30019 V 198.19997" /></g></svg>
