<?xml version="1.0" encoding="UTF-8" standalone="no"?>
<!-- Created with Inkscape (http://www.inkscape.org/) -->

<svg
   xmlns:dc="http://purl.org/dc/elements/1.1/"
   xmlns:cc="http://creativecommons.org/ns#"
   xmlns:rdf="http://www.w3.org/1999/02/22-rdf-syntax-ns#"
   xmlns:svg="http://www.w3.org/2000/svg"
   xmlns="http://www.w3.org/2000/svg"
   xmlns:sodipodi="http://sodipodi.sourceforge.net/DTD/sodipodi-0.dtd"
   xmlns:inkscape="http://www.inkscape.org/namespaces/inkscape"
   id="svg2"
   version="1.1"
   inkscape:version="0.48.2 r9819"
   width="360"
   height="165"
   sodipodi:docname="Baracchini def.jpg">
  <metadata
     id="metadata8">
    <rdf:RDF>
      <cc:Work
         rdf:about="">
        <dc:format>image/svg+xml</dc:format>
        <dc:type
           rdf:resource="http://purl.org/dc/dcmitype/StillImage" />
        <dc:title></dc:title>
      </cc:Work>
    </rdf:RDF>
  </metadata>
  <defs
     id="defs6" />
  <sodipodi:namedview
     pagecolor="#ffffff"
     bordercolor="#666666"
     borderopacity="1"
     objecttolerance="10"
     gridtolerance="10"
     guidetolerance="10"
     inkscape:pageopacity="0"
     inkscape:pageshadow="2"
     inkscape:window-width="1280"
     inkscape:window-height="776"
     id="namedview4"
     showgrid="false"
     inkscape:zoom="1.2885057"
     inkscape:cx="138.47201"
     inkscape:cy="48.551744"
     inkscape:window-x="0"
     inkscape:window-y="24"
     inkscape:window-maximized="1"
     inkscape:current-layer="svg2" />
  <g
     id="g3804"
     transform="matrix(1.7945477,0.30703582,-0.30703582,1.7945477,-659.20683,-224.06722)">
    <rect
       ry="2.0124962"
       rx="2.0124962"
       y="55.05669"
       x="525.56036"
       height="53.504593"
       width="36.904827"
       id="rect2993"
       style="fill:#ffffff;fill-opacity:1;stroke:#000000;stroke-width:0.82389325;stroke-linecap:round;stroke-linejoin:round;stroke-miterlimit:4;stroke-opacity:1;stroke-dasharray:none;stroke-dashoffset:0" />
    <path
       style="fill:#ff0000;fill-opacity:1;stroke:#ff0000;stroke-width:0.54926223px;stroke-linecap:butt;stroke-linejoin:miter;stroke-opacity:1"
       d="m 533.42223,82.151241 c -6.59532,-10.55733 3.97973,-16.01202 10.59052,-10.8936 6.6108,-5.11842 17.18585,0.33627 10.59053,10.8936 -3.04974,4.8818 -7.32671,8.71427 -10.59053,12.15339 -3.26381,-3.43912 -7.54078,-7.27159 -10.59052,-12.15339 z"
       id="path2991"
       inkscape:connector-curvature="0"
       sodipodi:nodetypes="scscs" />
    <text
       transform="scale(0.88137636,1.1345891)"
       sodipodi:linespacing="125%"
       id="text2995"
       y="56.951359"
       x="606.86707"
       style="font-size:63.45909882px;font-style:normal;font-variant:normal;font-weight:bold;font-stretch:normal;text-align:end;line-height:125%;letter-spacing:0px;word-spacing:0px;text-anchor:end;fill:#000000;fill-opacity:1;stroke:none;font-family:Ubuntu;-inkscape-font-specification:Sans Bold"
       xml:space="preserve"><tspan
         style="font-size:7.93238735px"
         y="56.951359"
         x="606.86707"
         id="tspan2997"
         sodipodi:role="line">A</tspan></text>
  </g>
  <g
     id="g3839"
     transform="matrix(1.8143853,-0.15059269,0.15059269,1.8143853,-855.74085,3.9102631)">
    <rect
       style="fill:#ffffff;fill-opacity:1;stroke:#000000;stroke-width:0.82389325;stroke-linecap:round;stroke-linejoin:round;stroke-miterlimit:4;stroke-opacity:1;stroke-dasharray:none;stroke-dashoffset:0"
       id="rect3767"
       width="36.904827"
       height="53.504593"
       x="483.17169"
       y="55.05669"
       rx="2.0124962"
       ry="2.0124962" />
    <text
       xml:space="preserve"
       style="font-size:63.45909882px;font-style:normal;font-variant:normal;font-weight:bold;font-stretch:normal;text-align:end;line-height:125%;letter-spacing:0px;word-spacing:0px;text-anchor:end;fill:#000000;fill-opacity:1;stroke:none;font-family:Ubuntu;-inkscape-font-specification:Sans Bold"
       x="558.77332"
       y="56.951359"
       id="text3769"
       sodipodi:linespacing="125%"
       transform="scale(0.88137636,1.1345891)"><tspan
         sodipodi:role="line"
         id="tspan3771"
         x="558.77332"
         y="56.951359"
         style="font-size:7.93238735px">A</tspan></text>
    <path
       sodipodi:nodetypes="scscs"
       inkscape:connector-curvature="0"
       id="path3794"
       d="m 491.03358,78.562449 c -6.59532,10.55733 3.97973,16.012025 10.59052,10.8936 6.6108,5.118425 17.18585,-0.33627 10.59053,-10.8936 -3.04974,-4.8818 -7.32671,-8.71427 -10.59053,-12.15339 -3.26381,3.43912 -7.54078,7.27159 -10.59052,12.15339 z"
       style="fill:#000000;fill-opacity:1;stroke:#000000;stroke-width:0.54926223px;stroke-linecap:butt;stroke-linejoin:miter;stroke-opacity:1" />
    <path
       sodipodi:nodetypes="ccccc"
       inkscape:connector-curvature="0"
       id="path3796"
       d="m 500.86452,89.575987 c -0.19612,1.589414 -0.93867,5.035757 -2.74193,7.632927 2.33434,0 4.66869,0 7.00303,0 -1.80326,-2.59717 -2.54581,-6.043513 -2.74193,-7.632927 z"
       style="fill:#000000;fill-opacity:1;stroke:#000000;stroke-width:0.54926223px;stroke-linecap:butt;stroke-linejoin:miter;stroke-opacity:1" />
  </g>
  <g
     id="g3855"
     transform="matrix(1.8129879,0.1665748,-0.1665748,1.8129879,-583.59306,-144.33575)">
    <rect
       ry="2.0124962"
       rx="2.0124962"
       y="55.05669"
       x="431.00101"
       height="53.504593"
       width="36.904827"
       id="rect3780"
       style="fill:#ffffff;fill-opacity:1;stroke:#000000;stroke-width:0.82389325;stroke-linecap:round;stroke-linejoin:round;stroke-miterlimit:4;stroke-opacity:1;stroke-dasharray:none;stroke-dashoffset:0" />
    <text
       transform="scale(0.88137636,1.1345891)"
       sodipodi:linespacing="125%"
       id="text3782"
       y="56.951359"
       x="499.58102"
       style="font-size:63.45909882px;font-style:normal;font-variant:normal;font-weight:bold;font-stretch:normal;text-align:end;line-height:125%;letter-spacing:0px;word-spacing:0px;text-anchor:end;fill:#000000;fill-opacity:1;stroke:none;font-family:Ubuntu;-inkscape-font-specification:Sans Bold"
       xml:space="preserve"><tspan
         style="font-size:7.93238735px"
         y="56.951359"
         x="499.58102"
         id="tspan3784"
         sodipodi:role="line">A</tspan></text>
    <path
       sodipodi:nodetypes="czczczcc"
       inkscape:connector-curvature="0"
       id="path3828"
       d="m 448.12037,86.632957 c -5.87779,5.89863 -11.79783,2.26782 -11.89403,-2.81603 -0.0962,-5.08386 3.89653,-8.27158 12.04224,-3.96468 -7.26496,-4.91905 -4.91505,-12.63508 1.18484,-12.63508 6.0999,0 8.44981,7.71603 1.18485,12.63508 8.14571,-4.3069 12.13847,-1.11918 12.04224,3.96468 -0.0962,5.08385 -6.01624,8.71466 -11.89403,2.81603 z"
       style="fill:#000000;fill-opacity:1;stroke:#000000;stroke-width:0.54926223px;stroke-linecap:butt;stroke-linejoin:miter;stroke-opacity:1" />
    <path
       style="fill:#000000;fill-opacity:1;stroke:#000000;stroke-width:0.54926223px;stroke-linecap:butt;stroke-linejoin:miter;stroke-opacity:1"
       d="m 448.69384,86.915237 c -0.19612,1.58941 -0.93867,6.8884 -2.74193,9.48557 2.33434,0 4.66869,0 7.00303,0 -1.80326,-2.59717 -2.54581,-7.89616 -2.74193,-9.48557 z"
       id="path3837"
       inkscape:connector-curvature="0"
       sodipodi:nodetypes="ccccc" />
  </g>
  <g
     id="g3871"
     transform="matrix(1.8206241,0,0,1.8206241,-587.68056,-74.189247)">
    <rect
       style="fill:#ffffff;fill-opacity:1;stroke:#000000;stroke-width:0.82389325;stroke-linecap:round;stroke-linejoin:round;stroke-miterlimit:4;stroke-opacity:1;stroke-dasharray:none;stroke-dashoffset:0"
       id="rect3788"
       width="36.904827"
       height="53.504593"
       x="382.38742"
       y="55.05669"
       rx="2.0124962"
       ry="2.0124962" />
    <text
       xml:space="preserve"
       style="font-size:63.45909882px;font-style:normal;font-variant:normal;font-weight:bold;font-stretch:normal;text-align:end;line-height:125%;letter-spacing:0px;word-spacing:0px;text-anchor:end;fill:#000000;fill-opacity:1;stroke:none;font-family:Ubuntu;-inkscape-font-specification:Sans Bold"
       x="444.42459"
       y="56.951359"
       id="text3790"
       sodipodi:linespacing="125%"
       transform="scale(0.88137636,1.1345891)"><tspan
         sodipodi:role="line"
         id="tspan3792"
         x="444.42459"
         y="56.951359"
         style="font-size:7.93238735px">A</tspan></text>
    <path
       style="fill:#ff0000;fill-opacity:1;stroke:#ff0000;stroke-width:0.54926223px;stroke-linecap:butt;stroke-linejoin:miter;stroke-opacity:1"
       d="m 412.36039,81.808982 c -2.78801,-2.72603 -8.38017,-9.18439 -11.52055,-14.76394 -3.14038,5.57955 -8.73254,12.03791 -11.52055,14.76394 2.78801,2.72604 8.38017,9.1844 11.52055,14.76395 3.14038,-5.57955 8.73254,-12.03791 11.52055,-14.76395 z"
       id="path3866"
       inkscape:connector-curvature="0"
       sodipodi:nodetypes="ccccc" />
  </g>
</svg>
