<?xml version="1.0" encoding="UTF-8" standalone="no"?>
<!-- Created with Inkscape (http://www.inkscape.org/) -->
<svg
   xmlns:dc="http://purl.org/dc/elements/1.1/"
   xmlns:cc="http://creativecommons.org/ns#"
   xmlns:rdf="http://www.w3.org/1999/02/22-rdf-syntax-ns#"
   xmlns:svg="http://www.w3.org/2000/svg"
   xmlns="http://www.w3.org/2000/svg"
   xmlns:sodipodi="http://sodipodi.sourceforge.net/DTD/sodipodi-0.dtd"
   xmlns:inkscape="http://www.inkscape.org/namespaces/inkscape"
   width="250"
   height="325"
   id="svg2639"
   sodipodi:version="0.32"
   inkscape:version="0.46"
   version="1.0"
   sodipodi:docname="Felix Cat-Haha.svg"
   inkscape:output_extension="org.inkscape.output.svg.inkscape">
  <defs
     id="defs2641">
    <inkscape:perspective
       sodipodi:type="inkscape:persp3d"
       inkscape:vp_x="0 : 32 : 1"
       inkscape:vp_y="0 : 1000 : 0"
       inkscape:vp_z="64 : 32 : 1"
       inkscape:persp3d-origin="32 : 21.333333 : 1"
       id="perspective2647" />
  </defs>
  <sodipodi:namedview
     id="base"
     pagecolor="#ffffff"
     bordercolor="#666666"
     borderopacity="1.0"
     inkscape:pageopacity="0.0"
     inkscape:pageshadow="2"
     inkscape:zoom="1.375"
     inkscape:cx="46.628938"
     inkscape:cy="87.314469"
     inkscape:current-layer="layer1"
     showgrid="true"
     inkscape:document-units="px"
     inkscape:grid-bbox="true"
     inkscape:window-width="1680"
     inkscape:window-height="1000"
     inkscape:window-x="-8"
     inkscape:window-y="-8" />
  <metadata
     id="metadata2644">
    <rdf:RDF>
      <cc:Work
         rdf:about="">
        <dc:format>image/svg+xml</dc:format>
        <dc:type
           rdf:resource="http://purl.org/dc/dcmitype/StillImage" />
      </cc:Work>
    </rdf:RDF>
  </metadata>
  <g
     id="layer1"
     inkscape:label="Layer 1"
     inkscape:groupmode="layer">
    <path
       d="M 138.0237,101.16263 C 135.9612,101.72513 133.7112,108.22513 133.2112,110.16263 C 132.9612,111.22513 133.2737,112.66263 134.6487,112.41263 C 136.7737,111.97513 138.9612,105.41263 139.4612,103.53763 C 139.7112,102.53763 139.4612,100.78763 138.0237,101.16263 M 63.336204,113.53763 C 62.648704,116.72513 66.336204,119.85013 68.148704,122.16263 C 68.711204,122.91263 69.961204,124.72513 71.148704,123.85013 C 72.211204,122.97513 70.648704,121.22513 70.148704,120.53763 C 68.336204,118.10013 66.336204,114.28763 63.336204,113.53763 M 90.023705,119.16263 L 95.336205,137.85013 C 87.148705,139.22513 81.523705,146.78763 79.648705,154.53763 C 71.711204,152.97513 63.086204,150.03763 55.023704,149.85013 C 57.023704,156.91263 62.648704,164.10013 66.273704,170.53763 C 67.398704,172.47513 70.523704,176.16263 70.461204,178.47513 C 70.461204,179.78763 68.523704,180.78763 67.648704,181.53763 C 65.523704,183.35013 62.461204,185.53763 62.023704,188.53763 C 65.773704,188.22513 68.461204,182.16263 72.023704,180.53763 L 75.023704,186.53763 C 71.586204,188.10013 69.086204,191.85013 66.898704,194.85013 C 66.461204,195.47513 63.961204,198.41263 66.023704,198.66263 C 67.273704,198.85013 68.336204,196.66263 68.961204,195.85013 C 71.148704,192.91263 73.398704,190.10013 76.336204,187.85013 C 77.398705,191.41263 82.648705,190.16263 85.648705,190.16263 C 84.648705,202.72513 82.836205,215.28763 81.711205,227.85013 C 81.148705,233.78763 81.836205,239.78763 76.648704,243.47513 C 75.961204,240.47513 75.711204,235.97513 73.461204,233.66263 C 69.586204,229.60013 59.023704,232.60013 56.211204,236.47513 C 52.586204,241.60013 53.586204,250.41263 54.648704,256.16263 C 51.148704,254.47513 47.211204,250.66263 43.023704,251.53763 C 32.523704,253.72513 32.648704,267.35013 39.336204,273.41263 C 43.648704,277.35013 49.461204,278.60013 55.023704,279.60013 C 57.148704,279.97513 59.148704,281.03763 61.336204,281.16263 C 71.711204,281.66263 85.023705,276.85013 93.648705,271.41263 C 99.148705,267.97513 107.0237,262.35013 107.3362,255.16263 C 108.8362,256.85013 109.2737,259.72513 110.0237,261.85013 C 111.0237,264.91263 114.1487,270.41263 111.7737,273.41263 C 107.5862,278.72513 96.461205,276.78763 90.648705,277.72513 C 88.711205,278.10013 86.023705,278.16263 84.523705,279.72513 C 81.961205,282.35013 82.023705,288.35013 81.586205,291.85013 C 81.148705,295.16263 81.023705,297.47513 82.773705,300.47513 C 84.961205,304.35013 89.086205,306.22513 93.023705,307.78763 C 97.961204,309.78763 103.4612,312.35013 109.0237,310.85013 C 111.2737,310.22513 113.2112,308.60013 115.3362,307.66263 C 117.2737,306.78763 119.5862,306.35013 121.2112,304.97513 C 123.7112,302.78763 121.7112,296.22513 124.7112,295.03763 C 126.2737,294.41263 129.0862,295.72513 130.6487,296.10013 C 135.4612,297.35013 140.4612,298.91263 145.3362,299.66263 C 148.3987,300.16263 152.3362,297.47513 155.0237,296.16263 C 156.9612,295.16263 160.8987,293.41263 161.5862,291.10013 C 162.3362,288.28763 161.6487,284.41263 161.6487,281.47513 L 147.6487,281.47513 C 147.9612,275.03763 157.3987,270.41263 162.6487,267.47513 C 161.1487,262.03763 158.6487,256.78763 156.6487,251.47513 C 156.0237,249.72513 154.2737,247.03763 154.8987,245.16263 C 155.7112,242.85013 159.5862,236.22513 162.0237,235.60013 C 166.8987,234.28763 172.1487,237.47513 175.7737,232.47513 C 181.8987,224.16263 181.7737,213.03763 177.8987,203.85013 C 176.2112,199.85013 173.3362,195.28763 168.6487,194.60013 C 163.0862,193.72513 160.3362,198.91263 156.0237,201.16263 C 154.3987,195.85013 150.2112,190.16263 144.3362,190.16263 C 145.4612,187.47513 149.0862,179.53763 143.3362,178.97513 C 142.3362,178.91263 141.2737,179.28763 140.3362,179.53763 C 140.7112,178.10013 141.0237,175.78763 139.8362,174.72513 C 138.0862,173.16263 135.8362,175.53763 134.0862,174.78763 C 132.1487,173.97513 132.0862,168.97513 131.3362,167.16263 C 131.0237,166.41263 130.3362,165.41263 130.5237,164.53763 C 130.7737,163.66263 131.6487,163.22513 132.3362,162.85013 C 133.8987,166.72513 138.0237,165.91263 139.6487,162.53763 C 140.8362,159.97513 138.5862,157.66263 139.1487,155.35013 C 139.5237,153.72513 141.0237,152.47513 141.5237,150.85013 C 142.2112,148.41263 141.5862,144.53763 142.8362,142.53763 C 146.3362,136.97513 153.9612,134.78763 160.0237,134.85013 L 160.0237,134.53763 C 153.3362,131.78763 147.3987,135.60013 142.0237,139.16263 C 141.6487,138.03763 140.2112,136.35013 140.5237,135.22513 C 140.8362,133.78763 143.2112,132.60013 144.3362,131.72513 C 148.6487,128.47513 152.7737,126.16263 158.3362,126.53763 L 158.3362,126.16263 C 152.4612,124.66263 147.6487,126.03763 142.6487,129.35013 C 140.8362,130.53763 139.2112,133.22513 137.0237,133.53763 C 138.1487,129.35013 137.6487,121.60013 132.0237,120.91263 C 128.7112,120.47513 124.8987,123.10013 122.8987,125.53763 C 122.0237,126.60013 121.2737,128.53763 119.9612,129.10013 C 118.0862,129.91263 113.5237,127.35013 111.3362,127.22513 C 108.8362,127.03763 106.3362,127.72513 104.0237,128.66263 C 103.0237,129.03763 101.7737,130.16263 100.6487,129.91263 C 99.461205,129.72513 98.461204,128.03763 97.648704,127.16263 C 95.148705,124.60013 92.898705,121.28763 90.023705,119.16263 M 111.6487,128.85013 L 111.6487,129.16263 C 108.0237,130.28763 106.3362,133.91263 106.3362,137.53763 C 106.3362,139.66263 106.5862,141.78763 109.0237,142.16263 C 108.3987,137.72513 107.2737,131.78763 113.3362,130.66263 C 115.2112,130.28763 117.3362,130.97513 119.3362,130.85013 C 118.5237,135.22513 114.9612,139.22513 117.1487,143.85013 C 118.6487,147.22513 122.8362,147.78763 126.0237,146.66263 C 131.2112,144.85013 134.8987,140.28763 136.6487,135.16263 C 142.8362,137.03763 141.3362,149.10013 138.4612,153.16263 C 130.8987,163.72513 120.4612,169.78763 108.3362,173.28763 C 103.8362,174.66263 100.0237,176.91263 95.648705,174.53763 C 97.336204,168.78763 101.0237,165.53763 101.0237,159.16263 C 96.836205,159.28763 92.961205,164.47513 88.711205,162.66263 C 85.211205,161.10013 86.148705,153.53763 87.273705,150.85013 C 90.211205,144.10013 96.086205,141.97513 102.6487,144.53763 L 102.6487,144.85013 C 96.648705,144.91263 91.148705,147.85013 89.148705,153.85013 C 88.711205,155.22513 87.148705,160.97513 89.148705,161.72513 C 90.711205,162.35013 90.336205,158.53763 90.336205,157.85013 C 90.586205,153.03763 93.461205,148.35013 98.336204,147.28763 C 100.4612,146.85013 103.7737,147.72513 105.3362,146.16263 L 106.6487,146.53763 C 103.7737,142.10013 100.0237,132.47513 107.0237,129.47513 C 108.4612,128.85013 110.0862,128.85013 111.6487,128.85013 M 46.836204,137.85013 C 45.898704,138.41263 46.523704,139.47513 47.086204,140.03763 C 48.148704,141.16263 52.898704,145.47513 54.523704,144.47513 C 55.461204,143.91263 54.836204,142.91263 54.273704,142.35013 C 53.211204,141.22513 48.461204,136.85013 46.836204,137.85013 M 103.3362,144.85013 L 103.0237,145.16263 L 103.3362,144.85013 M 163.4612,150.16263 C 162.7112,150.78763 163.3362,151.66263 164.0237,151.97513 C 165.3987,152.53763 172.0862,153.91263 173.0862,152.66263 C 173.8362,151.72513 172.3362,150.97513 171.6487,150.72513 C 169.8987,150.22513 165.0862,148.97513 163.4612,150.16263 M 137.6487,156.85013 C 138.2112,158.85013 139.0237,161.47513 137.2737,163.10013 C 135.9612,164.35013 133.2112,163.72513 133.5862,161.53763 C 133.8987,159.78763 136.4612,157.97513 137.6487,156.85013 M 129.0237,165.53763 C 131.4612,170.03763 133.2112,175.91263 133.0237,180.85013 C 129.9612,180.78763 127.5862,178.60013 125.0237,177.16263 C 126.8987,172.72513 123.3362,167.72513 129.0237,165.53763 M 34.648704,168.16263 C 36.211204,168.60013 37.773704,168.53763 39.336204,168.53763 L 42.648704,168.53763 C 43.211204,168.53763 48.773704,168.53763 46.773704,166.85013 C 46.086204,166.22513 44.523704,166.53763 43.648704,166.53763 C 41.211204,166.53763 35.711204,165.41263 34.648704,168.16263 M 123.6487,169.16263 L 124.0237,175.53763 L 119.0237,175.53763 C 118.8362,171.22513 119.7112,170.85013 123.6487,169.16263 M 139.0237,175.85013 C 139.0237,176.85013 139.0862,177.85013 138.8987,178.85013 C 138.7112,180.03763 136.4612,183.41263 135.0237,181.66263 C 132.6487,178.78763 136.6487,176.03763 139.0237,175.85013 M 91.336205,182.16263 C 93.711205,184.66263 95.773705,187.28763 98.648705,189.16263 C 107.5862,194.91263 118.6487,194.35013 128.3362,190.78763 C 133.2737,188.91263 134.9612,185.53763 138.7737,182.28763 C 139.8362,181.41263 142.2112,180.16263 143.5862,180.91263 C 145.3987,181.91263 144.9612,184.28763 144.3987,185.85013 C 143.0237,189.91263 140.0237,193.10013 136.3362,195.22513 C 125.6487,201.35013 111.3362,201.85013 100.3362,196.28763 C 94.586205,193.35013 88.648705,189.28763 91.336205,182.16263 M 53.961204,183.78763 C 51.148704,183.66263 46.148704,186.47513 43.711204,187.78763 C 42.961204,188.16263 41.336204,189.72513 43.086204,190.03763 C 44.148704,190.22513 45.398704,189.47513 46.336204,189.10013 C 48.773704,188.03763 52.586204,187.28763 54.586204,185.53763 C 55.336204,184.85013 55.086204,183.85013 53.961204,183.78763 M 101.3362,218.85013 L 106.0237,224.47513 C 98.961205,229.47513 100.3362,237.22513 102.3362,244.16263 L 93.648705,250.47513 L 98.898705,227.85013 L 101.3362,218.85013 M 55.023704,256.16263 L 54.648704,256.47513 L 55.023704,256.16263 M 134.3362,258.16263 C 135.2112,262.53763 137.0862,265.91263 134.3362,269.85013 C 132.3987,267.10013 131.7737,261.47513 131.3362,258.16263 L 134.3362,258.16263 z M 100.0237,106.53763 C 100.7737,106.47513 101.7112,106.53763 102.1487,105.72513 C 102.5862,104.78763 102.0862,103.47513 102.0237,102.53763 C 101.7737,99.912628 102.2112,94.475128 100.5862,92.350128 C 98.398704,89.412628 98.648705,96.100128 98.711205,96.850128 C 98.836205,98.162628 98.961205,99.537628 99.148705,100.85013 C 99.398705,102.72513 99.648705,104.60013 100.0237,106.53763 z"
       id="path2533" />
    <path
       style="font-size:10px;font-style:normal;font-variant:normal;font-weight:normal;font-stretch:normal;text-align:start;line-height:100%;writing-mode:lr-tb;text-anchor:start;fill:#000000;fill-opacity:1;stroke:none;stroke-width:1px;stroke-linecap:butt;stroke-linejoin:miter;stroke-opacity:1;font-family:GulimChe;-inkscape-font-specification:GulimChe"
       d="M 87.815355,77.348911 C 89.891688,76.092101 91.968023,74.83529 94.044356,73.57848 C 91.320366,69.078269 88.596381,64.578066 85.872391,60.077856 C 89.944857,57.612781 94.017322,55.147706 98.089787,52.682632 C 100.81377,57.182842 103.53776,61.683045 106.26175,66.183256 C 108.33808,64.926445 110.41442,63.669635 112.49075,62.412824 C 106.26603,52.129183 100.04131,41.845534 93.816599,31.561893 C 91.740266,32.818703 89.663932,34.075514 87.587598,35.332324 C 90.036493,39.378059 92.485382,43.423785 94.934276,47.469519 C 90.86181,49.934594 86.789345,52.399668 82.716879,54.864743 C 80.267985,50.819009 77.819096,46.773283 75.370202,42.727548 C 73.293868,43.984359 71.217534,45.241169 69.141201,46.49798 C 75.365917,56.781621 81.590639,67.06527 87.815355,77.348911 z M 115.83249,60.390061 C 118.03358,59.057733 120.23467,57.725407 122.43576,56.39308 C 121.8691,53.545882 121.30244,50.698692 120.73577,47.851495 C 124.85279,45.35945 128.96982,42.867405 133.08684,40.37536 C 135.39121,42.170721 137.69557,43.966073 139.99994,45.761434 C 142.26341,44.391349 144.52688,43.021263 146.79035,41.651178 C 136.44862,33.859582 126.10687,26.067977 115.76513,18.276381 C 113.56404,19.608708 111.36295,20.941035 109.16186,22.273362 C 111.3854,34.978925 113.60895,47.684497 115.83249,60.390061 z M 127.94247,36.40264 C 125.1354,38.101762 122.32834,39.800883 119.52128,41.500005 C 118.59741,36.835586 117.67353,32.171167 116.74965,27.506748 C 120.48059,30.472046 124.21153,33.437343 127.94247,36.40264 z"
       id="text2650" />
    <path
       style="font-size:10px;font-style:normal;font-variant:normal;font-weight:normal;font-stretch:normal;text-align:start;line-height:100%;writing-mode:lr-tb;text-anchor:start;fill:#000000;fill-opacity:1;stroke:none;stroke-width:1px;stroke-linecap:butt;stroke-linejoin:miter;stroke-opacity:1;font-family:GulimChe;-inkscape-font-specification:GulimChe"
       d="M 161.97484,108.37205 C 164.36389,107.94406 166.75295,107.51607 169.14199,107.08808 C 168.21437,101.9101 167.28676,96.73212 166.35914,91.554134 C 171.04496,90.714685 175.73077,89.875238 180.41659,89.035789 C 181.34421,94.213775 182.27183,99.391751 183.19945,104.56974 C 185.58849,104.14175 187.97755,103.71376 190.3666,103.28577 C 188.24685,91.45331 186.1271,79.620844 184.00736,67.788388 C 181.61831,68.216377 179.22926,68.644369 176.84021,69.072358 C 177.67415,73.727419 178.50809,78.38247 179.34203,83.037532 C 174.6562,83.876981 169.97039,84.716428 165.28457,85.555877 C 164.45063,80.900816 163.6167,76.245765 162.78276,71.590704 C 160.39371,72.018693 158.00465,72.446685 155.61561,72.874674 C 157.73535,84.707131 159.8551,96.539597 161.97484,108.37205 z M 194.21163,102.59694 C 196.74423,102.14323 199.27682,101.68953 201.80942,101.23582 C 202.30224,98.374918 202.79506,95.514022 203.28787,92.653118 C 208.02496,91.804485 212.76205,90.955852 217.49913,90.107219 C 219.00574,92.609934 220.51233,95.112641 222.01894,97.615356 C 224.62331,97.148792 227.22768,96.682227 229.83205,96.215663 C 222.97522,85.231839 216.11839,74.248006 209.26156,63.264182 C 206.72896,63.717889 204.19637,64.171595 201.66377,64.625301 C 199.17973,77.282511 196.69568,89.939732 194.21163,102.59694 z M 214.08678,84.527768 C 210.85695,85.106381 207.62712,85.684995 204.39729,86.263608 C 205.2209,81.586754 206.0445,76.909892 206.86812,72.233037 C 209.27433,76.331278 211.68056,80.429527 214.08678,84.527768 z"
       id="text2658" />
  </g>
</svg>
