<?xml version="1.0" encoding="UTF-8" standalone="no"?>
<svg
   id="svg2"
   width="330"
   height="440"
   inkscape:version="1.2.2 (b0a8486541, 2022-12-01)"
   sodipodi:docname="bvs-aca-2.svg"
   sodipodi:version="0.32"
   version="1.0"
   xmlns:inkscape="http://www.inkscape.org/namespaces/inkscape"
   xmlns:sodipodi="http://sodipodi.sourceforge.net/DTD/sodipodi-0.dtd"
   xmlns:xlink="http://www.w3.org/1999/xlink"
   xmlns="http://www.w3.org/2000/svg"
   xmlns:svg="http://www.w3.org/2000/svg">
  <defs
     id="defs3602" />
  <sodipodi:namedview
     id="base"
     height="660px"
     bordercolor="#666666"
     borderopacity="1.0"
     gridtolerance="10.0"
     guidetolerance="10.0"
     inkscape:current-layer="svg2"
     inkscape:cx="287.43891"
     inkscape:cy="354.2605"
     inkscape:deskcolor="#d1d1d1"
     inkscape:pagecheckerboard="1"
     inkscape:pageopacity="0.0"
     inkscape:pageshadow="2"
     inkscape:showpageshadow="0"
     inkscape:window-height="1428"
     inkscape:window-maximized="0"
     inkscape:window-width="1936"
     inkscape:window-x="724"
     inkscape:window-y="200"
     inkscape:zoom="1.4142136"
     objecttolerance="10.0"
     pagecolor="#ffffff"
     showgrid="false" />
  <g
     id="oak"
     style="stroke:#000000;stroke-linecap:round;stroke-linejoin:round"
     transform="translate(-132.59544,-199.9873)">
    <g
       id="leaf-wrapper"
       style="display:none">
      <g
         id="l"
         style="fill:#090;stroke-width:2.5018">
        <path
           id="l1"
           d="m 834.352,499.708 c 3.83672,6.07501 6.75816,4.29768 8.90277,-1.69899 3.9467,3.70534 11.2169,1.14964 6.02553,-7.57284 5.08803,3.22768 11.6327,-9.11915 -0.91257,-9.51652 l -0.77265,-0.56223 c -1.90746,-10.9175 -10.0509,-4.54541 -9.11958,-0.29932 -7.62785,-3.45035 -10.526,3.4778 -4.53947,7.99464 -9.79912,-2.93699 -8.81088,7.68526 -3.53171,8.199 -8.45935,5.18532 0.43866,12.4876 3.94768,3.45626 z" />
        <path
           id="l2"
           d="m 852.176,475.647 c -2.60266,3.55959 -13.8512,16.5119 -15.6446,17.5073" />
      </g>
    </g>
    <use
       id="use5290"
       xlink:href="#l"
       transform="matrix(-0.612381,0.513842,0.513842,0.612381,656.828,-293.32)" />
    <use
       id="use5224"
       xlink:href="#l"
       transform="matrix(-0.513842,-0.61238,-0.61238,0.513842,1130.84,744.39)" />
    <use
       id="use5182"
       xlink:href="#l"
       transform="matrix(0.78726,-0.138809,-0.138809,-0.78726,-420.368,890.98)" />
    <use
       id="use5026"
       xlink:href="#l"
       transform="matrix(7.06484e-6,-0.799404,-0.799404,-7.06484e-6,607.961,1026.78)" />
    <use
       id="use5014"
       xlink:href="#l"
       transform="matrix(0.399708,-0.692301,-0.692301,-0.399708,240.107,1137.28)" />
    <use
       id="use4996"
       xlink:href="#l"
       transform="matrix(-0.799402,-4.75286e-6,-4.75286e-6,0.799402,957.135,-25.0103)" />
    <use
       id="use4990"
       xlink:href="#l"
       transform="matrix(0.513842,0.612382,0.612382,-0.513842,-514.217,60.4513)" />
    <use
       id="use4948"
       xlink:href="#l"
       transform="matrix(-0.273407,-0.751193,-0.751193,0.273407,829.66,793.73)" />
    <use
       id="use4930"
       xlink:href="#l"
       transform="matrix(-0.399697,-0.692304,-0.692304,0.399697,1032.01,728.579)" />
    <use
       id="use4906"
       xlink:href="#l"
       transform="matrix(-0.6923,-0.399705,-0.399705,0.6923,1146.08,307.998)" />
    <use
       id="use4870"
       xlink:href="#l"
       transform="matrix(0.78726,-0.138809,-0.138809,-0.78726,-260.844,805.266)" />
    <use
       id="use4864"
       xlink:href="#l"
       transform="matrix(-0.273407,-0.751193,-0.751193,0.273407,923.8,793.882)" />
    <use
       id="use4846"
       xlink:href="#l"
       transform="matrix(-4.92651e-6,0.799403,0.799403,4.92651e-6,-59.7956,-429.538)" />
    <use
       id="use4834"
       xlink:href="#l"
       transform="matrix(0.273407,0.751195,0.751195,-0.273407,-281.385,-238.644)" />
    <use
       id="use4828"
       xlink:href="#l"
       transform="matrix(0.138808,0.78726,0.78726,-0.138808,-191.342,-366.121)" />
    <use
       id="use4816"
       xlink:href="#l"
       transform="matrix(0.751196,-0.273406,-0.273406,-0.751196,-213.132,833.294)" />
    <use
       id="use4810"
       xlink:href="#l"
       transform="matrix(0.612383,-0.513842,-0.513842,-0.612383,-42.6849,1008.23)" />
    <use
       id="use4798"
       xlink:href="#l"
       transform="matrix(0.513841,0.612383,0.612383,-0.513841,-491.762,-0.266355)" />
    <use
       id="use4792"
       xlink:href="#l"
       transform="matrix(-0.751196,0.273405,0.273405,0.751196,756.916,-304.214)" />
    <use
       id="use4786"
       xlink:href="#l"
       transform="matrix(0.787257,0.138822,0.138822,-0.787257,-447.929,565.439)" />
    <path
       id="path4626"
       d="m 192.583,555.693 c 14.3961,7.28088 30.7365,3.94376 30.7936,-3.65079 19.5199,4.37621 38.4794,8.08008 47.619,0 22.0555,-19.8088 14.8837,-28.2083 17.9365,-80.7936 0.64463,-7.38581 -12.9582,-8.04473 -24.7619,-9.20635 3.8649,-3.44771 -21.8945,-39.1233 -40.4836,-3.16412 12.5173,-29.8117 -5.6585,-21.9509 -26.4918,-8.30442 31.9526,-23.2583 -12.5656,-10.2231 -31.7547,-16.468 20.8714,-6.15095 46.5078,7.50923 28.5601,-20.099 29.5989,27.6511 7.7596,16.1911 44.4557,18.5117 12.2343,5.98713 25.1529,10.9478 33.3333,23.0159 l 18.254,1.58731 2.38096,-48.4127 c -8.47147,-7.13114 -85.6264,-12.2728 -100,-13.4921 87.0754,-3.69215 71.5728,4.28621 39.6826,-16.6667 -23.9954,2.37365 -39.1588,-10.1761 -35.5376,-9.21746 55.5793,14.7128 26.0921,-5.98528 -1.76398,-22.5286 6.46432,3.14029 30.3132,7.71641 35.7143,21.4286 6.51868,6.70883 11.3068,15.1482 23.8095,15.873 8.99298,9.08521 23.5564,13.6532 38.8889,14.2857 l 1.5873,-37.3016 c -15.7185,-10.8614 -32.4615,-10.9868 -43.6508,-3.17461 12.7437,-11.9048 -17.5198,-7.14285 -38.0952,-19.0476 18.4353,4.77692 36.8107,9.37377 53.1746,7.9365 8.99471,-1.59503 19.5767,0.84381 28.5714,5.55556 l 1.5873,-32.5397 c -41.0694,0.43367 -40.0858,-18.9499 -54.8108,-4.71385 10.6517,-4.93522 2.85085,-29.6799 -5.50664,-36.556 26.6945,19.8776 -1.17656,33.7408 61.1111,31.746 l 0.79365,-19.0476 -17.4603,-21.4286 c 5.82296,5.56127 15.4626,14.7876 17.4603,12.6984 l 2.38095,-43.6508 2.38096,34.127 c 3.94599,-2.0496 10.7841,-12.7755 16.6667,-20.6349 -4.45927,8.98709 -2.63259,18.463 -16.6667,29.3651 l 0.79365,17.4603 30.1587,-40.4762 c -3.64771,9.36322 -11.3814,13.5119 1.82073,25.5369 -12.7898,-14.9231 -19.4838,4.90906 -31.1858,25.2568 l 0.79365,19.8413 c 14.039,-11.4223 28.0624,-17.5899 48.4127,-14.2857 7.00826,-12.8957 10.6817,-24.1239 13.4921,-34.9206 -0.21357,9.26167 -0.99576,19.2341 -9.52381,38.8889 l 6.34921,9.52381 -8.73016,-6.34921 c -22.9225,-7.92484 -34.3206,6.50882 -49.2064,16.6667 l 2.38095,42.0635 c 5.53978,-11.4849 7.43228,-16.9862 31.746,-19.8413 16.0393,-10.6614 17.3999,-15.5557 42.0635,-21.4286 4.6054,-14.1478 15.8846,-20.7383 24.6032,-24.6032 -9.3238,7.18285 -17.7513,14.545 -16.6667,23.8095 l 9.5238,7.9365 c -12.241,-3.94615 -38.7355,-0.0846 -53.9682,16.6667 -31.5249,9.32641 -27.9958,3.3767 -36.5079,30.9524 l 1.5873,26.9841 c 22.6073,-15.9936 24.3671,-13.5205 35.7143,-18.254 20.3215,6.36703 23.191,-16.4573 38.889,-25.3968 13.545,2.38075 21.863,8.6743 37.3015,1.58731 -4.9031,7.00164 -13.6935,10.116 -33.3333,2.38095 -8.5863,4.05176 -16.2498,9.4877 -20.635,19.8413 -7.01602,4.60644 4.27686,17.0955 1.51535,14.7957 -7.51361,-6.25767 -25.1105,-7.83651 -32.4677,-2.09725 -11.4594,-0.077 -18.9372,6.22838 -26.1905,16.6667 l 1.5873,35.7143 c 9.09272,-16.0852 25.3043,-17.9408 40.4762,-19.8413 15.0463,-4.04265 19.939,-8.24276 26.9841,-16.6667 l -7.9365,13.4921 c 19.6841,9.16776 37.983,5.86827 55.5556,-3.96826 -10.9464,8.55228 -18.3199,20.0278 -51.5873,10.3175 3.6602,13.1973 17.6916,12.5664 26.9841,18.254 -9.2066,-0.49425 -18.6969,-1.65079 -34.127,-16.6667 l -23.8095,3.1746 c -14.6123,4.45084 -25.599,12.2161 -31.746,23.0159 l 3.1746,60.3175 c 6.3536,14.2681 13.9138,7.83664 30.9524,20.6349 12.2613,2.47294 21.2412,2.45813 29.3651,0.79365 16.1431,10.5948 23.8355,-0.11589 34.127,-3.17461 -5.6123,6.12387 -12.0511,18.157 -38.0952,9.52382 -7.97049,0.79365 -14.9948,1.5873 -26.9842,2.38095 l -20.6349,-13.4921 c 15.5851,9.33563 10.5247,27.7036 56.3492,23.8095 -8.2931,2.1164 -13.0788,4.2328 -33.3333,6.3492 -0.29406,8.36136 7.66312,18.9731 -14.2857,21.4286 16.2193,-20.5547 2.51999,-32.7988 -19.0476,-42.8571 -0.72131,23.3927 28.4592,21.303 -3.1746,65.0794 -0.5682,-23.2609 22.7825,-23.5606 -10.3175,-54.7619 l -3.17461,-12.6984 c 0.94382,8.8684 -8.32638,14.3321 3.96826,26.9841 0.8527,11.6993 -7.05176,14.6414 -16.6667,15.873 -12.4606,-0.24818 0.51468,15.401 3.17461,24.6032 -4.23281,-6.61376 -30.7792,-17.2459 -3.17461,-34.127 11.165,-8.78336 1.96787,-12.4292 -3.1746,-15.873 -7.87801,-1.16721 -0.0889,-11.2871 6.34921,-20.6349 l -31.746,27.7778 c -9.27925,9.06335 -1.64815,16.0129 5.55556,23.0159 -9.99199,-8.67916 -22.4367,-2.9287 -10.3175,-25.3968 -12.058,-3.8427 -22.3606,8.76657 -30.9524,-2.38095 l -11.1111,-8.73016 c 11.1111,3.5642 22.2222,5.42128 33.3333,0.79365 16.5994,3.31315 25.5156,-3.45643 27.7778,-9.52381 -17.1986,4.24122 -31.5767,0.021 -46.8254,-1.5873 -7.02935,9.75851 -33.394,3.57476 -32.381,-6.19048 z"
       style="fill:#741;stroke-width:2" />
    <use
       id="use4747"
       xlink:href="#l"
       transform="matrix(0.78726,-0.138809,-0.138809,-0.78726,-323.434,761.681)" />
    <use
       id="use4768"
       xlink:href="#l"
       transform="matrix(0.273405,0.751196,0.751196,-0.273405,-307.774,-239.333)" />
    <use
       id="use4774"
       xlink:href="#l"
       transform="matrix(0.273419,-0.751192,-0.751192,-0.273419,406.862,1041.59)" />
    <use
       id="use4780"
       xlink:href="#l"
       transform="matrix(-0.399708,0.6923,0.6923,0.399708,249.314,-502.251)" />
    <use
       id="use4804"
       xlink:href="#l"
       transform="matrix(0.799404,6.08496e-6,6.08496e-6,-0.799404,-446.468,657.632)" />
    <use
       id="use4822"
       xlink:href="#l"
       transform="matrix(0.6923,0.399708,0.399708,-0.6923,-480.017,228.984)" />
    <use
       id="use4840"
       xlink:href="#l"
       transform="matrix(0.513842,0.612382,0.612382,-0.513842,-410.214,-23.7834)" />
    <use
       id="use4852"
       xlink:href="#l"
       transform="matrix(-4.92651e-6,0.799403,0.799403,4.92651e-6,-47.8909,-421.205)" />
    <use
       id="use4858"
       xlink:href="#l"
       transform="matrix(-0.799402,-4.75286e-6,-4.75286e-6,0.799402,1015.86,-97.2325)" />
    <use
       id="use4876"
       xlink:href="#l"
       transform="matrix(-0.6923,-0.399705,-0.399705,0.6923,1099.28,341.301)" />
    <use
       id="use4882"
       xlink:href="#l"
       transform="matrix(0.799404,6.08496e-6,6.08496e-6,-0.799404,-317.499,666.362)" />
    <use
       id="use4888"
       xlink:href="#l"
       transform="matrix(0.513842,0.612382,0.612382,-0.513842,-361.836,1.72124)" />
    <use
       id="use4894"
       xlink:href="#l"
       transform="matrix(-0.13882,0.787257,0.787257,0.13882,112.1,-450.716)" />
    <use
       id="use4900"
       xlink:href="#l"
       transform="matrix(-0.692305,0.399697,0.399697,0.692305,767.604,-376.235)" />
    <use
       id="use4912"
       xlink:href="#l"
       transform="matrix(0.399697,0.692306,0.692306,-0.399697,-270.545,-81.2773)" />
    <use
       id="use4918"
       xlink:href="#l"
       transform="matrix(-0.692305,0.399697,0.399697,0.692305,801.731,-351.235)" />
    <use
       id="use4924"
       xlink:href="#l"
       transform="matrix(-0.273417,0.751191,0.751191,0.273417,240.161,-443.461)" />
    <use
       id="use4936"
       xlink:href="#l"
       transform="matrix(-0.799402,-4.75286e-6,-4.75286e-6,0.799402,1045.63,-52.3913)" />
    <use
       id="use4942"
       xlink:href="#l"
       transform="matrix(-0.273407,-0.751193,-0.751193,0.273407,938.88,831.184)" />
    <use
       id="use4954"
       xlink:href="#l"
       transform="matrix(0.799404,6.08496e-6,6.08496e-6,-0.799404,-455.595,690.568)" />
    <use
       id="use4960"
       xlink:href="#l"
       transform="matrix(0.612383,-0.513842,-0.513842,-0.612383,-33.4512,1038.74)" />
    <use
       id="use4966"
       xlink:href="#l"
       transform="matrix(7.06484e-6,-0.799404,-0.799404,-7.06484e-6,623.834,995.033)" />
    <use
       id="use4972"
       xlink:href="#l"
       transform="matrix(0.6923,0.399708,0.399708,-0.6923,-526.446,334.142)" />
    <use
       id="use4978"
       xlink:href="#l"
       transform="matrix(0.751192,0.273418,0.273418,-0.751192,-494.535,470.081)" />
    <use
       id="use4984"
       xlink:href="#l"
       transform="matrix(0.273407,0.751195,0.751195,-0.273407,-312.734,-164.041)" />
    <use
       id="use5002"
       xlink:href="#l"
       transform="matrix(-0.138808,-0.78726,-0.78726,0.138808,767.579,959.777)" />
    <use
       id="use5008"
       xlink:href="#l"
       transform="matrix(-0.273405,-0.751196,-0.751196,0.273405,843.623,868.016)" />
    <use
       id="use5020"
       xlink:href="#l"
       transform="matrix(-0.399708,0.6923,0.6923,0.399708,267.568,-395.902)" />
    <use
       id="use5032"
       xlink:href="#l"
       transform="matrix(0.751191,0.273419,0.273419,-0.751191,-572.422,493.358)" />
    <use
       id="use5038"
       xlink:href="#l"
       transform="matrix(0.751191,0.273419,0.273419,-0.751191,-571.628,463.993)" />
    <use
       id="use5044"
       xlink:href="#l"
       transform="matrix(0.6923,0.399708,0.399708,-0.6923,-573.668,324.619)" />
    <use
       id="use5050"
       xlink:href="#l"
       transform="matrix(0.273419,-0.751192,-0.751192,-0.273419,337.417,1109.45)" />
    <use
       id="use5056"
       xlink:href="#l"
       transform="matrix(0.612383,-0.513842,-0.513842,-0.612383,-87.9533,1071.65)" />
    <use
       id="use5062"
       xlink:href="#l"
       transform="matrix(0.612383,-0.513842,-0.513842,-0.612383,-82.7946,1098.63)" />
    <use
       id="use5068"
       xlink:href="#l"
       transform="matrix(0.6923,0.399708,0.399708,-0.6923,-585.969,382.158)" />
    <use
       id="use5074"
       xlink:href="#l"
       transform="matrix(0.692307,-0.399696,-0.399696,-0.692307,-137.996,1131.96)" />
    <use
       id="use5080"
       xlink:href="#l"
       transform="matrix(-0.138808,-0.78726,-0.78726,0.138808,755.674,1068.51)" />
    <use
       id="use5086"
       xlink:href="#l"
       transform="matrix(-0.787257,-0.138822,-0.138822,0.787257,962.747,200.546)" />
    <use
       id="use5092"
       xlink:href="#l"
       transform="matrix(-0.138808,-0.78726,-0.78726,0.138808,715.595,1062.55)" />
    <use
       id="use5098"
       xlink:href="#l"
       transform="matrix(-0.273405,-0.751196,-0.751196,0.273405,794.814,957.302)" />
    <use
       id="use5104"
       xlink:href="#l"
       transform="matrix(0.399708,-0.692301,-0.692301,-0.399708,190.9,1226.97)" />
    <use
       id="use5110"
       xlink:href="#l"
       transform="matrix(7.06484e-6,-0.799404,-0.799404,-7.06484e-6,546.056,1116.46)" />
    <use
       id="use5116"
       xlink:href="#l"
       transform="matrix(-0.6923,-0.399708,-0.399708,0.6923,947.217,448.508)" />
    <use
       id="use5122"
       xlink:href="#l"
       transform="matrix(0.78726,-0.138809,-0.138809,-0.78726,-437.828,927.092)" />
    <use
       id="use5128"
       xlink:href="#l"
       transform="matrix(0.399695,0.692307,0.692307,-0.399695,-396.521,54.4534)" />
    <use
       id="use5134"
       xlink:href="#l"
       transform="matrix(-0.273405,-0.751196,-0.751196,0.273405,848.782,913.254)" />
    <use
       id="use5140"
       xlink:href="#l"
       transform="matrix(-0.138808,-0.78726,-0.78726,0.138808,775.119,1012.16)" />
    <use
       id="use5146"
       xlink:href="#l"
       transform="matrix(0.6923,0.399708,0.399708,-0.6923,-521.287,431.365)" />
    <use
       id="use5152"
       xlink:href="#l"
       transform="matrix(-0.273405,-0.751196,-0.751196,0.273405,828.147,910.873)" />
    <use
       id="use5158"
       xlink:href="#l"
       transform="matrix(0.138822,-0.787258,-0.787258,-0.138822,450.768,1152.42)" />
    <use
       id="use5164"
       xlink:href="#l"
       transform="matrix(-0.399708,0.6923,0.6923,0.399708,207.648,-365.744)" />
    <use
       id="use5170"
       xlink:href="#l"
       transform="matrix(0.138822,-0.787258,-0.787258,-0.138822,458.308,1134.16)" />
    <use
       id="use5176"
       xlink:href="#l"
       transform="matrix(0.273419,-0.751192,-0.751192,-0.273419,306.862,1171.75)" />
    <use
       id="use5188"
       xlink:href="#l"
       transform="matrix(0.138822,-0.787258,-0.787258,-0.138822,486.879,1117.5)" />
    <use
       id="use5194"
       xlink:href="#l"
       transform="matrix(-0.513842,-0.61238,-0.61238,0.513842,1065.76,736.454)" />
    <use
       id="use5200"
       xlink:href="#l"
       transform="matrix(-0.799402,-4.75286e-6,-4.75286e-6,0.799402,1028.56,76.1802)" />
    <use
       id="use5206"
       xlink:href="#l"
       transform="matrix(-0.6923,-0.399705,-0.399705,0.6923,1158.8,472.253)" />
    <use
       id="use5212"
       xlink:href="#l"
       transform="matrix(-0.273417,0.751191,0.751191,0.273417,279.843,-302.984)" />
    <use
       id="use5218"
       xlink:href="#l"
       transform="matrix(-0.751194,0.273407,0.273407,0.751194,913.86,-122.393)" />
    <use
       id="use5230"
       xlink:href="#l"
       transform="matrix(-0.612381,0.513842,0.513842,0.612381,677.066,-383.796)" />
    <use
       id="use5236"
       xlink:href="#l"
       transform="matrix(-0.751194,0.273407,0.273407,0.751194,873.384,-238.663)" />
    <use
       id="use5242"
       xlink:href="#l"
       transform="matrix(0.273407,0.751195,0.751195,-0.273407,-203.21,-132.692)" />
    <use
       id="use5248"
       xlink:href="#l"
       transform="matrix(-0.787258,0.13881,0.13881,0.787258,952.463,-128.597)" />
    <use
       id="use5254"
       xlink:href="#l"
       transform="matrix(-0.799402,-4.75286e-6,-4.75286e-6,0.799402,1009.52,-11.915)" />
    <use
       id="use5260"
       xlink:href="#l"
       transform="matrix(0.78726,-0.138809,-0.138809,-0.78726,-259.654,895.742)" />
    <use
       id="use5266"
       xlink:href="#l"
       transform="matrix(-0.751194,0.273407,0.273407,0.751194,847.987,-175.964)" />
    <use
       id="use5272"
       xlink:href="#l"
       transform="matrix(-0.513842,-0.61238,-0.61238,0.513842,1114.17,663.041)" />
    <use
       id="use5278"
       xlink:href="#l"
       transform="matrix(-0.799402,-4.75286e-6,-4.75286e-6,0.799402,1068.64,3.16433)" />
    <use
       id="use5284"
       xlink:href="#l"
       transform="matrix(-4.92651e-6,0.799403,0.799403,4.92651e-6,1.71231,-252.158)" />
    <use
       id="use5296"
       xlink:href="#l"
       transform="matrix(0.799404,6.08496e-6,6.08496e-6,-0.799404,-328.214,824.298)" />
    <use
       id="use5302"
       xlink:href="#l"
       transform="matrix(0.513842,0.612382,0.612382,-0.513842,-405.487,175.928)" />
    <use
       id="use5308"
       xlink:href="#l"
       transform="matrix(-0.799402,-4.75286e-6,-4.75286e-6,0.799402,1050.39,35.704)" />
    <use
       id="use5314"
       xlink:href="#l"
       transform="matrix(0.273407,0.751195,0.751195,-0.273407,-167.893,-131.105)" />
    <use
       id="use5320"
       xlink:href="#l"
       transform="matrix(-0.692305,0.399697,0.399697,0.692305,823.557,-288.14)" />
    <use
       id="use5326"
       xlink:href="#l"
       transform="matrix(-0.513842,-0.61238,-0.61238,0.513842,1150.68,660.263)" />
    <use
       id="use5332"
       xlink:href="#l"
       transform="matrix(0.273407,0.751195,0.751195,-0.273407,-181.385,-64.438)" />
    <use
       id="use5338"
       xlink:href="#l"
       transform="matrix(0.612375,0.513851,0.513851,-0.612375,-338.846,290.739)" />
    <use
       id="use5344"
       xlink:href="#l"
       transform="matrix(0.13881,0.787259,0.787259,-0.13881,-63.779,-165.344)" />
    <use
       id="use5350"
       xlink:href="#l"
       transform="matrix(-0.799402,-4.75286e-6,-4.75286e-6,0.799402,1112.69,57.5294)" />
  </g>
</svg>
