<?xml version="1.0" encoding="UTF-8" standalone="no"?>
<!-- Created with Inkscape (http://www.inkscape.org/) -->

<svg
   xmlns:dc="http://purl.org/dc/elements/1.1/"
   xmlns:cc="http://creativecommons.org/ns#"
   xmlns:rdf="http://www.w3.org/1999/02/22-rdf-syntax-ns#"
   xmlns:svg="http://www.w3.org/2000/svg"
   xmlns="http://www.w3.org/2000/svg"
   xmlns:sodipodi="http://sodipodi.sourceforge.net/DTD/sodipodi-0.dtd"
   xmlns:inkscape="http://www.inkscape.org/namespaces/inkscape"
   width="21.215397mm"
   height="44.314594mm"
   viewBox="0 0 21.215397 44.314594"
   version="1.1"
   id="svg1190"
   inkscape:version="0.92.4 (5da689c313, 2019-01-14)"
   sodipodi:docname="Betty Boop, front.svg">
  <title
     id="title1207">Betty Boop, front</title>
  <defs
     id="defs1184" />
  <sodipodi:namedview
     id="base"
     pagecolor="#ffffff"
     bordercolor="#666666"
     borderopacity="1.0"
     inkscape:pageopacity="0.0"
     inkscape:pageshadow="2"
     inkscape:zoom="0.35"
     inkscape:cx="101.36787"
     inkscape:cy="391.50616"
     inkscape:document-units="mm"
     inkscape:current-layer="layer1"
     showgrid="false"
     fit-margin-top="0"
     fit-margin-left="0"
     fit-margin-right="0"
     fit-margin-bottom="0"
     inkscape:window-width="1920"
     inkscape:window-height="986"
     inkscape:window-x="-11"
     inkscape:window-y="-11"
     inkscape:window-maximized="1" />
  <metadata
     id="metadata1187">
    <rdf:RDF>
      <cc:Work
         rdf:about="">
        <dc:format>image/svg+xml</dc:format>
        <dc:type
           rdf:resource="http://purl.org/dc/dcmitype/StillImage" />
        <dc:title>Betty Boop, front</dc:title>
        <cc:license
           rdf:resource="http://creativecommons.org/publicdomain/zero/1.0/" />
      </cc:Work>
      <cc:License
         rdf:about="http://creativecommons.org/publicdomain/zero/1.0/">
        <cc:permits
           rdf:resource="http://creativecommons.org/ns#Reproduction" />
        <cc:permits
           rdf:resource="http://creativecommons.org/ns#Distribution" />
        <cc:permits
           rdf:resource="http://creativecommons.org/ns#DerivativeWorks" />
      </cc:License>
    </rdf:RDF>
  </metadata>
  <g
     inkscape:label="Layer 1"
     inkscape:groupmode="layer"
     id="layer1"
     transform="translate(-79.013083,-208.10474)">
    <path
       style="fill:#000000;stroke-width:1"
       d="m 88.568584,252.37982 c -0.18303,-0.104 -0.420983,-0.32838 -0.554421,-0.5228 -0.164781,-0.24008 -0.285135,-0.58873 -0.217631,-0.63045 0.02862,-0.0177 0.02241,-0.0385 -0.0183,-0.0614 -0.08194,-0.046 -0.09548,-0.54668 -0.02791,-1.03228 0.07588,-0.54534 0.07946,-0.7568 0.02125,-1.25709 -0.07994,-0.68706 -0.187632,-1.02914 -0.621407,-1.97386 -0.721834,-1.57209 -0.973116,-2.96606 -0.74125,-4.11206 0.03108,-0.15364 0.131456,-0.50383 0.223044,-0.7782 0.272338,-0.81582 0.238337,-1.42242 -0.115199,-2.05524 -0.06131,-0.10975 -0.21453,-0.433 -0.340486,-0.71834 -0.125954,-0.28534 -0.254289,-0.57539 -0.285187,-0.64455 -0.0309,-0.0692 -0.05618,-0.13957 -0.05618,-0.15645 0,-0.0169 -0.05211,-0.14886 -0.115801,-0.29328 -0.06369,-0.14442 -0.137704,-0.32094 -0.164474,-0.39228 -0.02677,-0.0713 -0.06894,-0.12975 -0.09371,-0.12982 -0.02477,-8e-5 -0.04717,-0.0584 -0.04976,-0.1297 -0.0026,-0.0713 -0.02785,-0.18345 -0.05613,-0.2493 -0.02827,-0.0659 -0.05873,-0.16417 -0.06768,-0.2185 -0.009,-0.0543 -0.03303,-0.11896 -0.05351,-0.14364 -0.02048,-0.0247 -0.05536,-0.14048 -0.07753,-0.25734 -0.02216,-0.11687 -0.04549,-0.21769 -0.05184,-0.22404 -0.0063,-0.006 -0.147507,-0.0204 -0.313688,-0.0312 -0.289762,-0.0188 -0.58491,-0.10272 -0.711804,-0.20231 -0.03292,-0.0258 -0.131696,-0.0796 -0.219492,-0.11959 -0.340925,-0.15507 -0.902967,-0.65979 -1.005025,-0.90251 -0.07019,-0.16694 -0.06756,-0.38081 0.005,-0.40867 0.03166,-0.0121 0.121412,-0.0117 0.199456,9.1e-4 0.152043,0.0247 0.528169,-0.0359 0.82049,-0.13221 0.285643,-0.0941 0.460188,-0.23064 0.56385,-0.44119 0.08088,-0.16428 0.09324,-0.24275 0.08511,-0.54024 -0.0052,-0.19143 -0.02724,-0.42489 -0.04891,-0.5188 -0.02166,-0.0939 -0.03924,-0.34136 -0.03906,-0.54988 3.01e-4,-0.35941 0.01638,-0.5214 0.116766,-1.17727 0.04503,-0.29417 0.171733,-0.75606 0.262742,-0.95778 0.02971,-0.0658 0.100575,-0.22748 0.157484,-0.35917 0.209264,-0.48428 0.656913,-1.04265 1.176756,-1.46782 0.408808,-0.33435 0.455523,-0.43232 0.425135,-0.89154 -0.0231,-0.34915 -0.106077,-0.52554 -0.345021,-0.73349 -0.06305,-0.0549 -0.165185,-0.19854 -0.22696,-0.31926 -0.101329,-0.19802 -0.11222,-0.25853 -0.111335,-0.61857 6.03e-4,-0.21949 0.01667,-0.43499 0.03584,-0.47889 0.01917,-0.0439 0.03908,-0.0978 0.04423,-0.11972 0.0052,-0.022 0.04062,-0.13477 0.0788,-0.25071 0.04267,-0.12955 0.0605,-0.26584 0.04625,-0.35361 -0.02804,-0.17276 -0.227936,-0.69268 -0.266324,-0.69268 -0.112611,0 -0.286472,0.38462 -0.396868,0.87797 -0.04666,0.20852 -0.111113,0.48982 -0.143232,0.62512 -0.03212,0.1353 -0.0584,0.29159 -0.0584,0.34731 0,0.0557 -0.02048,0.15155 -0.04551,0.21294 -0.02503,0.0614 -0.06742,0.1655 -0.09419,0.23135 -0.02677,0.0659 -0.07193,0.20952 -0.100353,0.31926 -0.02843,0.10975 -0.06802,0.22074 -0.08798,0.24664 -0.02427,0.0315 -0.008,0.0623 0.04912,0.0928 0.221625,0.11861 0.333453,0.38229 0.322955,0.76152 -0.0052,0.18898 0.009,0.23815 0.09303,0.32222 0.09063,0.0906 0.09532,0.11188 0.05418,0.2459 -0.04228,0.13776 -0.05496,0.14668 -0.207936,0.14644 -0.179167,-2.9e-4 -0.344458,-0.0905 -0.482138,-0.26318 l -0.0882,-0.11062 -0.07433,0.11719 c -0.09469,0.1493 -0.244903,0.29511 -0.274026,0.26599 -0.01232,-0.0123 -0.02242,-8.3e-4 -0.02242,0.0256 0,0.0596 -0.285228,0.18383 -0.499184,0.21742 -0.180789,0.0284 -0.505333,-0.0448 -0.694804,-0.15676 -0.256505,-0.15152 -0.403037,-0.50479 -0.401844,-0.96878 6.04e-4,-0.25052 0.152013,-0.76504 0.362231,-1.23125 0.04195,-0.0931 0.07628,-0.18485 0.07628,-0.204 0,-0.0191 0.0511,-0.14955 0.113563,-0.28976 0.06246,-0.14022 0.136768,-0.34474 0.165129,-0.45448 0.02836,-0.10975 0.08345,-0.29831 0.122422,-0.41904 0.03897,-0.12072 0.108997,-0.44397 0.155616,-0.71833 0.101739,-0.59875 0.319045,-1.29102 0.504891,-1.60842 0.07458,-0.12739 0.135609,-0.24538 0.135609,-0.2622 0,-0.0168 0.06499,-0.10651 0.14442,-0.19931 0.07943,-0.0928 0.134982,-0.17816 0.123448,-0.18969 -0.01154,-0.0115 -0.152532,-0.0482 -0.313328,-0.0815 -0.160794,-0.0333 -0.391441,-0.11134 -0.512547,-0.17346 -0.121106,-0.0621 -0.274068,-0.13607 -0.339915,-0.16431 -0.06585,-0.0283 -0.150019,-0.0764 -0.187047,-0.10688 -0.07205,-0.0594 -0.152168,-0.0349 -0.152168,0.0466 0,0.0273 -0.05986,0.1077 -0.133024,0.17861 -0.292566,0.28356 -0.781646,0.28966 -1.086674,0.0136 -0.214872,-0.19451 -0.315676,-0.56442 -0.287305,-1.05429 0.01836,-0.317 0.186516,-0.86654 0.275896,-0.90164 0.01863,-0.007 0.03388,-0.0477 0.03388,-0.0898 0,-0.0575 -0.02825,-0.0765 -0.113591,-0.0765 -0.219393,0 -0.585977,-0.23485 -0.729784,-0.46754 -0.06881,-0.11134 -0.08532,-0.19631 -0.08123,-0.41803 0.0044,-0.23817 0.02035,-0.29652 0.110658,-0.40472 0.118131,-0.14154 0.209686,-0.20524 0.244686,-0.17024 0.01285,0.0128 -0.0066,0.0564 -0.04316,0.0969 -0.03659,0.0404 -0.0771,0.14914 -0.09003,0.24158 -0.02238,0.15998 -0.0142,0.17736 0.169865,0.36123 0.237271,0.23702 0.490399,0.3325 0.605459,0.22837 0.0402,-0.0364 0.09872,-0.0661 0.130045,-0.0661 0.03132,0 0.08041,-0.053 0.10907,-0.11774 0.08318,-0.18793 -0.01264,-0.31114 -0.400499,-0.51498 -0.396395,-0.20832 -0.823172,-0.56422 -1.018065,-0.84899 -0.283064,-0.41361 -0.624581,-1.32971 -0.745672,-2.00024 -0.0256,-0.14174 -0.03499,-0.14965 -0.17774,-0.14965 -0.197418,0 -0.519847,-0.10867 -0.637638,-0.2149 -0.231485,-0.20878 -0.26562,-0.49448 -0.100697,-0.8428 0.149614,-0.31599 0.573404,-0.67321 0.573404,-0.48334 0,0.0304 -0.04493,0.0847 -0.09984,0.1207 -0.05491,0.036 -0.146791,0.13636 -0.20417,0.22306 -0.190113,0.28728 -0.03472,0.59279 0.319481,0.62814 0.256761,0.0256 0.280109,-0.0361 0.282624,-0.74781 0.0011,-0.31827 0.0256,-0.72233 0.05439,-0.89793 0.05377,-0.32794 0.230828,-1.00637 0.281215,-1.0775 0.01555,-0.022 0.06133,-0.13868 0.101734,-0.2594 0.101373,-0.30287 0.522293,-0.92732 0.826978,-1.22684 0.218921,-0.21521 0.756635,-0.64342 1.072703,-0.85424 l 0.09857,-0.0657 -0.114306,-0.12078 c -0.253167,-0.26751 -0.157464,-0.67422 0.222964,-0.94753 0.104958,-0.0754 0.201489,-0.13711 0.214512,-0.13711 0.01302,0 0.07135,-0.0326 0.129607,-0.0724 0.05826,-0.0398 0.186742,-0.0969 0.285515,-0.12682 0.09877,-0.0299 0.210012,-0.0801 0.247203,-0.11138 0.105526,-0.0889 0.522196,-0.0277 0.672415,0.0987 0.09472,0.0797 0.112874,0.1199 0.09277,0.20539 -0.03621,0.15395 -0.07784,0.1831 -0.139774,0.0978 -0.10254,-0.14115 -0.346766,-0.26102 -0.485023,-0.23805 -0.256792,0.0427 -0.368296,0.0797 -0.399547,0.13258 -0.01755,0.0297 -0.05347,0.054 -0.07982,0.054 -0.02635,0 -0.08289,0.10948 -0.125646,0.24329 l -0.07774,0.24329 0.0977,0.0761 c 0.155596,0.12119 0.2587,0.13106 0.424755,0.0407 0.184936,-0.10066 0.482043,-0.2029 0.591915,-0.20369 0.0445,-3.2e-4 0.116336,-0.0245 0.15963,-0.0536 0.07434,-0.0501 0.403217,-0.13253 0.896825,-0.22482 0.382578,-0.0715 0.824185,-0.0662 1.616261,0.0194 0.392452,0.0424 0.525848,0.084 0.828973,0.25815 l 0.32835,0.18867 -0.0073,1.01325 c -0.004,0.55728 -0.01732,1.23772 -0.02964,1.51209 -0.02671,0.59508 0.03639,0.79952 0.07256,0.23509 0.01321,-0.20612 0.03064,-0.93381 0.03874,-1.61709 0.0081,-0.68328 0.02551,-1.25978 0.03869,-1.2811 0.03327,-0.0538 0.306959,-0.1518 0.685048,-0.24521 0.303966,-0.0751 0.787778,-0.1226 1.322196,-0.12982 0.282802,-0.004 1.045575,0.17301 1.245497,0.28873 0.210465,0.12182 0.38607,0.13397 0.542166,0.0375 0.07408,-0.0458 0.144379,-0.10849 0.156215,-0.13933 0.03758,-0.0979 -0.04893,-0.32207 -0.168523,-0.43664 -0.1859,-0.17811 -0.568557,-0.22239 -0.687129,-0.0795 -0.02513,0.0303 -0.08072,0.0551 -0.123544,0.0551 -0.13745,0 -0.06211,-0.13364 0.128024,-0.22709 0.152081,-0.0747 0.230263,-0.0858 0.518311,-0.0733 0.582829,0.0254 0.79249,0.1512 0.955374,0.57327 0.09459,0.24511 0.101866,0.36548 0.03351,0.5545 -0.05809,0.16065 -0.05254,0.16563 0.326069,0.29214 0.143768,0.048 0.279997,0.10213 0.30273,0.1202 0.02273,0.0181 0.15735,0.0904 0.29915,0.16077 0.695034,0.34485 1.302491,0.91922 1.762797,1.6668 0.103242,0.16767 0.188545,0.32585 0.189562,0.35151 0.0011,0.0257 0.02716,0.0975 0.0581,0.15963 0.08245,0.1656 0.211829,0.49016 0.263786,0.66171 0.04102,0.13545 0.05846,0.14966 0.183721,0.14966 0.18917,0 0.32013,-0.13762 0.355517,-0.3736 0.05249,-0.35003 -0.08249,-0.57068 -0.325011,-0.53133 -0.166521,0.027 -0.175426,-0.03 -0.01744,-0.11169 0.2058,-0.10643 0.321123,-0.0775 0.572002,0.14369 0.449863,0.39655 0.467128,0.79132 0.05205,1.19004 -0.140435,0.1349 -0.17462,0.228 -0.111412,0.30345 0.04279,0.0511 0.106155,0.24953 0.209617,0.65648 0.09252,0.3639 0.108887,0.8067 0.04127,1.1162 -0.02173,0.0994 -0.0597,0.28855 -0.08439,0.42025 -0.04531,0.24165 -0.06786,0.32326 -0.209574,0.75824 -0.161372,0.49533 -0.40193,0.98295 -0.612377,1.24132 -0.09595,0.1178 -0.174453,0.23243 -0.174453,0.25473 0,0.0676 -1.160477,1.19328 -1.457717,1.41395 -0.09702,0.0721 -0.05505,0.1595 0.140432,0.29262 0.148162,0.1009 0.445264,0.12174 0.61739,0.0433 0.11807,-0.0538 0.19452,-0.26083 0.174417,-0.47232 -0.01041,-0.1095 -0.03268,-0.14244 -0.103068,-0.15243 -0.111277,-0.0158 -0.118078,-0.11022 -0.01,-0.13849 0.207386,-0.0542 0.328409,0.085 0.339593,0.3906 0.01069,0.29231 -0.07366,0.50024 -0.250601,0.61771 -0.258412,0.17155 -0.336882,0.20259 -0.575073,0.22749 -0.238313,0.0249 -0.260188,0.0433 -0.193926,0.1631 0.0742,0.13414 0.201115,0.74556 0.201115,0.96886 0,0.61894 -0.442392,1.10774 -0.98483,1.08814 -0.116819,-0.004 -0.2124,0.008 -0.2124,0.0264 0,0.0188 0.112242,0.11023 0.249423,0.20328 0.254321,0.1725 0.634156,0.49037 1.027622,0.85997 0.120722,0.1134 0.302708,0.28449 0.404417,0.3802 0.458029,0.431 0.913002,1.07125 1.047638,1.47425 0.09773,0.29254 0.188338,0.67605 0.167635,0.70955 -0.01069,0.0173 0.0083,0.22768 0.04222,0.46747 0.03392,0.2398 0.06699,0.50148 0.07349,0.5815 0.0065,0.08 0.03129,0.26859 0.0551,0.41903 0.02381,0.15044 0.06242,0.44208 0.08581,0.64808 0.04824,0.42497 0.185602,0.85802 0.333764,1.05227 0.161514,0.21175 0.468822,0.27411 1.206986,0.24492 0.431011,-0.0171 0.653431,-0.0443 0.811779,-0.0993 0.119962,-0.0417 0.302757,-0.0759 0.406212,-0.0759 0.161849,0 0.209389,0.0203 0.340599,0.14533 0.23699,0.22586 0.5334,0.45328 0.5908,0.45328 0.0286,0 0.0639,0.031 0.0784,0.0688 0.047,0.12241 -0.0894,0.1769 -0.410716,0.16409 l -0.293088,-0.0117 -0.05238,0.12458 c -0.02881,0.0685 -0.05123,0.14895 -0.04982,0.17873 0.0014,0.0298 -3.02e-4,0.13946 -0.0037,0.24372 -0.0062,0.18639 -0.0085,0.18956 -0.137358,0.18956 -0.103486,0 -0.146045,-0.0254 -0.20221,-0.12043 -0.08359,-0.1415 -0.145609,-0.12267 -0.145609,0.0442 0,0.13229 -0.09173,0.19284 -0.194985,0.12873 -0.03543,-0.022 -0.09077,-0.11457 -0.122984,-0.20571 -0.07727,-0.21862 -0.241229,-0.25974 -0.506779,-0.12712 -0.09821,0.049 -0.226247,0.10193 -0.284527,0.11752 -0.0955,0.0255 -0.104807,0.0444 -0.09423,0.19084 0.0098,0.1352 -0.0098,0.18705 -0.11661,0.30867 -0.187694,0.21377 -0.282614,0.18511 -0.335044,-0.10116 -0.05888,-0.32145 -0.174828,-0.41572 -0.565493,-0.45975 -0.387599,-0.0437 -0.542387,-0.16469 -0.772552,-0.60389 -0.07189,-0.13719 -0.146166,-0.24943 -0.165058,-0.24943 -0.01889,0 -0.03435,-0.0269 -0.03435,-0.0599 0,-0.0329 -0.0175,-0.0599 -0.03888,-0.0599 -0.02138,0 -0.06769,-0.0557 -0.102895,-0.12379 -0.03521,-0.0681 -0.165867,-0.28186 -0.290354,-0.47507 -0.227761,-0.35349 -0.287646,-0.45162 -0.499075,-0.81786 -0.06336,-0.10975 -0.149129,-0.24721 -0.190607,-0.30547 -0.04148,-0.0583 -0.07541,-0.1175 -0.07541,-0.13164 0,-0.0141 -0.07272,-0.13519 -0.161593,-0.26899 -0.08888,-0.13381 -0.190529,-0.29905 -0.225898,-0.36721 -0.08035,-0.15485 -0.286251,-0.93546 -0.316007,-1.19806 -0.02632,-0.23233 -0.119243,-0.3699 -0.369369,-0.5469 -0.101323,-0.0717 -0.225045,-0.17628 -0.274939,-0.2324 -0.140183,-0.15768 -0.140851,-0.1583 -0.276905,-0.25262 -0.07049,-0.0489 -0.259058,-0.19712 -0.419029,-0.32944 -0.348264,-0.28806 -0.528932,-0.4179 -0.581508,-0.4179 -0.06619,0 -0.139728,0.23388 -0.117196,0.37272 0.01309,0.0807 0.08515,0.1983 0.18543,0.30267 0.15831,0.16477 0.330228,0.47255 0.381781,0.68349 0.02771,0.11337 -0.09631,0.62811 -0.224991,0.93384 -0.13679,0.32499 -0.260789,0.48933 -0.474138,0.6284 l -0.202218,0.13182 0.02732,0.2594 c 0.01502,0.14267 0.05635,0.31327 0.09183,0.37912 0.0638,0.1184 0.676821,0.73797 0.730377,0.73818 0.07042,2.9e-4 0.59827,0.62953 0.753322,0.89803 0.229264,0.39702 0.51027,0.98454 0.574106,1.20034 0.03845,0.12998 0.08048,0.26328 0.09339,0.2962 0.01291,0.0329 0.02593,0.0778 0.02893,0.0998 0.003,0.0219 0.02979,0.12072 0.05953,0.21949 0.03678,0.12212 0.05033,0.34559 0.04234,0.69839 -0.03119,1.37868 -0.02273,1.46137 0.19003,1.8557 0.112232,0.20802 0.339261,0.45737 0.490962,0.53925 0.05793,0.0313 0.23928,0.0845 0.403002,0.11833 0.268634,0.0555 0.314812,0.0554 0.473334,-4.5e-4 0.32491,-0.11469 0.422512,-0.1147 0.497633,-4e-5 0.05867,0.0895 0.06081,0.12639 0.0169,0.29143 -0.07205,0.27081 -0.297241,0.66364 -0.448562,0.78248 -0.07137,0.056 -0.1573,0.12501 -0.190963,0.15325 -0.06812,0.0572 -0.285142,0.14731 -0.436941,0.18153 -0.05449,0.0123 -0.122932,0.0462 -0.1521,0.0754 -0.02917,0.0292 -0.155193,0.0823 -0.280055,0.11812 -0.124861,0.0358 -0.24498,0.0783 -0.266929,0.0946 -0.02195,0.0162 -0.09989,0.0408 -0.173197,0.0548 -0.211883,0.0402 -0.483946,0.17493 -0.511464,0.25328 -0.03287,0.0936 -0.339983,0.90063 -0.498135,1.30901 -0.068,0.1756 -0.186794,0.44497 -0.263982,0.59862 -0.07719,0.15364 -0.182352,0.3636 -0.233695,0.46658 -0.05134,0.10297 -0.122281,0.30949 -0.15764,0.45893 -0.03536,0.14945 -0.07922,0.30764 -0.09747,0.35153 -0.03523,0.0847 -0.06568,0.19241 -0.118506,0.41903 -0.01791,0.0768 -0.0806,0.31926 -0.139322,0.53876 -0.129523,0.48415 -0.140747,0.96133 -0.03614,1.53644 0.03436,0.18892 0.01574,1.15513 -0.02785,1.4453 -0.05679,0.37802 -0.206496,0.96037 -0.316843,1.23253 -0.149612,0.369 -0.36978,0.8478 -0.456922,0.99368 -0.04589,0.0768 -0.103649,0.18457 -0.128351,0.23944 -0.134284,0.29832 -0.17277,0.39554 -0.17277,0.43644 0,0.0249 -0.02518,0.085 -0.05594,0.13365 -0.03077,0.0486 -0.06876,0.15124 -0.08442,0.22806 -0.01566,0.0768 -0.04456,0.15971 -0.06421,0.18419 -0.03341,0.0416 -0.172409,0.7296 -0.214587,1.06208 -0.01038,0.0819 0.02491,0.36918 0.07842,0.63853 0.05351,0.26933 0.108919,0.61542 0.12312,0.76906 0.01419,0.15365 0.0595,0.37298 0.100659,0.48741 0.04116,0.11443 0.104237,0.38053 0.14017,0.59133 0.06454,0.37864 0.06425,0.38628 -0.02403,0.63001 -0.409796,1.13142 -1.013248,1.49304 -1.360735,0.81541 -0.04221,-0.0823 -0.09283,-0.14965 -0.112486,-0.14965 -0.01966,0 -0.09397,0.0763 -0.165141,0.16961 -0.268158,0.35148 -0.434956,0.44396 -0.6156,0.34131 z m 0.311059,-1.80577 c 0.260623,-0.1233 0.463331,-0.32123 0.396954,-0.38761 -0.03435,-0.0344 -0.05694,-0.0211 -0.09086,0.0534 -0.05962,0.13085 -0.325016,0.29959 -0.524081,0.33322 -0.279087,0.0472 -0.492902,-0.009 -0.629537,-0.16425 -0.06711,-0.0764 -0.122011,-0.11453 -0.122011,-0.0847 0,0.0737 0.152998,0.21218 0.304479,0.27558 0.217605,0.0911 0.436167,0.0827 0.665056,-0.0256 z m 1.269712,-0.0652 c 0.126562,-0.0901 0.235861,-0.26977 0.233614,-0.38397 -0.0012,-0.0594 -0.01023,-0.0559 -0.05225,0.0198 -0.09193,0.16561 -0.301114,0.26234 -0.554931,0.25661 -0.226925,-0.005 -0.276486,0.0229 -0.179585,0.10156 0.131637,0.10687 0.407311,0.10988 0.553149,0.006 z m -1.082,-0.26693 c 0.038,-0.0408 0.09011,-0.11344 0.115803,-0.16145 0.02569,-0.048 0.06476,-0.0873 0.08683,-0.0873 0.06752,0 0.274582,0.17009 0.251846,0.20688 -0.01175,0.019 -0.0065,0.0308 0.01154,0.0263 0.01809,-0.005 0.102806,0.0122 0.188248,0.0373 0.186108,0.0545 0.257469,0.0241 0.408667,-0.17409 0.135496,-0.17764 0.160501,-0.42238 0.09815,-0.96068 -0.103956,-0.89753 -0.0406,-1.53738 0.22658,-2.28838 0.146705,-0.41236 0.394336,-0.98152 0.486164,-1.11741 0.147347,-0.21806 0.404159,-0.83261 0.558671,-1.33691 0.257736,-0.84119 0.30871,-1.62337 0.156927,-2.408 -0.120098,-0.62085 -0.09432,-0.8335 0.24754,-2.0417 0.11465,-0.4052 0.223296,-0.6993 0.342769,-0.92786 0.05638,-0.10785 0.05535,-0.10974 -0.06005,-0.10974 -0.06458,0 -0.168857,-0.0268 -0.231725,-0.0596 -0.06287,-0.0328 -0.150226,-0.06 -0.194124,-0.0605 -0.140104,-0.002 -0.19313,-0.0616 -0.167487,-0.18982 0.02833,-0.14163 -0.07604,-0.27536 -0.242671,-0.31094 -0.05975,-0.0128 -0.153538,-0.0421 -0.208411,-0.0653 -0.05487,-0.0231 -0.300047,-0.0511 -0.544832,-0.0621 -0.368871,-0.0166 -0.460913,-0.009 -0.537656,0.0448 -0.05093,0.0357 -0.137983,0.0652 -0.193459,0.0656 -0.05548,4.5e-4 -0.188708,0.0559 -0.296071,0.12331 l -0.195203,0.12255 0.02803,0.44538 c 0.01542,0.24495 0.03952,0.57108 0.05356,0.72473 0.0422,0.46176 0.01925,0.88004 -0.06518,1.18778 -0.05917,0.21568 -0.08092,0.42498 -0.08402,0.80869 -0.0023,0.28474 -0.0053,0.66138 -0.0067,0.83697 -0.0014,0.17559 0.0017,0.59762 0.007,0.93783 0.0052,0.34021 -0.0114,0.95978 -0.03695,1.37681 -0.02555,0.41704 -0.05441,1.16231 -0.06413,1.65617 -0.0097,0.49386 -0.03163,1.14934 -0.04868,1.45663 -0.01706,0.30729 -0.02639,0.77086 -0.02075,1.03016 0.0071,0.32674 -0.0028,0.46335 -0.03239,0.44508 -0.137062,-0.0847 -0.226494,-0.75317 -0.213385,-1.59496 0.01942,-1.24666 0.0699,-2.0078 0.154855,-2.3346 0.162448,-0.62492 0.210344,-2.34015 0.08525,-3.05294 -0.04767,-0.2716 -0.02634,-1.02152 0.03872,-1.36174 0.07485,-0.39142 0.08693,-0.94459 0.04347,-1.9905 -0.01551,-0.37314 -0.02387,-0.75924 -0.01858,-0.85801 0.0053,-0.0988 0.0094,-0.55672 0.0091,-1.01765 -6.03e-4,-0.91429 -0.02289,-1.0331 -0.206273,-1.09819 -0.06075,-0.0216 -0.137399,-0.0543 -0.170323,-0.0727 -0.03292,-0.0184 -0.149654,-0.0845 -0.259401,-0.14691 -0.741321,-0.42135 -1.114441,-0.54112 -1.612431,-0.51756 -0.280883,0.0133 -0.908688,0.21731 -0.893139,0.29026 0.0047,0.0222 -0.02542,0.0315 -0.06702,0.0206 -0.0416,-0.0109 -0.126289,0.008 -0.188197,0.0418 -0.06191,0.0339 -0.217537,0.0731 -0.345843,0.0871 l -0.233282,0.0255 0.02583,0.14631 c 0.09043,0.51214 0.30743,1.26827 0.557374,1.94215 0.123064,0.33179 0.103543,0.28819 0.458824,1.02478 0.155402,0.32219 0.282549,0.623 0.282549,0.66846 0,0.0455 0.01918,0.0782 0.04263,0.0727 0.04279,-0.01 0.144592,0.22796 0.320114,0.74827 0.141227,0.41865 0.132931,0.96422 -0.02124,1.39677 -0.06259,0.17559 -0.135681,0.36416 -0.162434,0.41903 -0.179864,0.36892 -0.258027,1.42835 -0.160306,2.17283 0.05275,0.40186 0.226389,1.05733 0.363009,1.37033 0.03146,0.0721 0.0572,0.14786 0.0572,0.1684 0,0.0353 0.327355,0.80065 0.546175,1.2769 0.157093,0.34189 0.24087,0.59304 0.306186,0.91787 0.08772,0.43625 0.158718,1.25365 0.128607,1.48063 -0.05277,0.39777 0.109497,0.68458 0.435754,0.7702 0.176741,0.0464 0.221805,0.0441 0.394423,-0.0199 0.107186,-0.0398 0.225977,-0.10566 0.263979,-0.14644 z m 3.352317,-11.61956 c 0,-0.17977 -0.172398,-0.31955 -0.225014,-0.18243 -0.01264,0.0329 -0.04693,0.0599 -0.07621,0.0599 -0.09185,0 -0.09818,0.0644 -0.01511,0.15359 0.04708,0.0505 0.128608,0.0859 0.198159,0.0859 0.104053,0 0.118167,-0.014 0.118167,-0.11688 z m -0.580766,-0.0861 c -0.01285,-0.0208 -0.04037,-0.0273 -0.06116,-0.0144 -0.02079,0.0129 -0.02729,0.0404 -0.01444,0.0612 0.01285,0.0208 0.04037,0.0273 0.06116,0.0144 0.02079,-0.0128 0.02729,-0.0404 0.01443,-0.0612 z m 0.318103,-0.18045 c 0.03472,-0.0133 0.06313,-0.0572 0.06313,-0.0974 0,-0.0403 0.01796,-0.0843 0.03991,-0.0979 0.118477,-0.0732 -0.01341,-0.37912 -0.163461,-0.37912 -0.119169,0 -0.12847,0.0784 -0.01947,0.16413 0.06029,0.0474 0.103114,0.12135 0.103114,0.17798 0,0.11481 -0.06202,0.12932 -0.09032,0.0211 -0.03047,-0.11653 -0.222118,-0.22767 -0.302815,-0.17561 -0.03619,0.0233 -0.06053,0.0715 -0.05408,0.107 0.0065,0.0355 -0.007,0.0645 -0.02993,0.0645 -0.0625,0 -0.05019,0.0841 0.02439,0.16647 0.06605,0.073 0.297842,0.0993 0.429535,0.0488 z m 0.40234,-0.0983 c 0,-0.11289 -0.117074,-0.15359 -0.155297,-0.054 -0.02924,0.0762 0.04544,0.1865 0.111403,0.16451 0.02414,-0.008 0.04389,-0.0578 0.04389,-0.11053 z m -2.940677,-0.0223 c 0.360299,-0.16647 0.373904,-0.17102 0.62911,-0.21031 0.264498,-0.0407 0.696813,-0.0222 0.854938,0.0365 0.09471,0.0352 0.270158,0.0757 0.397548,0.0917 0.03208,0.004 0.06443,-0.022 0.07188,-0.0579 0.0093,-0.0448 -0.05271,-0.099 -0.198009,-0.17289 -0.407603,-0.20739 -1.530419,-0.17537 -1.790396,0.0511 -0.04253,0.037 -0.113247,0.0988 -0.157145,0.13719 -0.07174,0.0628 -0.113403,0.22947 -0.05735,0.22947 0.01235,0 0.124596,-0.0472 0.249423,-0.10487 z m 3.164305,-0.35705 c 0.01437,-0.0642 0.07524,-0.22449 0.135251,-0.35619 0.06001,-0.13169 0.117081,-0.29332 0.126823,-0.35917 0.0097,-0.0658 0.05336,-0.24543 0.09694,-0.39907 0.06466,-0.228 0.192058,-0.87257 0.194866,-0.98591 4.53e-4,-0.0155 -0.06665,-0.0389 -0.148957,-0.0521 -0.08231,-0.0132 -0.338217,-0.0608 -0.568684,-0.10591 -0.326553,-0.0638 -0.573159,-0.0817 -1.117414,-0.0811 -0.647481,7.5e-4 -0.721552,0.009 -1.016246,0.10649 -0.174823,0.0581 -0.455174,0.16918 -0.622998,0.24681 -0.447803,0.20714 -0.451263,0.21699 -0.50763,1.44419 -0.01547,0.33682 -0.01351,0.62142 0.0043,0.63246 0.01785,0.011 0.06276,-0.007 0.09979,-0.0391 0.113176,-0.0994 0.375932,-0.21596 0.588056,-0.2609 0.253006,-0.0536 0.948547,-0.0228 1.089394,0.0483 0.05825,0.0294 0.128652,0.0453 0.156455,0.0354 0.0278,-0.01 0.116141,0.0207 0.196307,0.068 0.162387,0.0958 0.301183,0.0833 0.406907,-0.0366 0.113038,-0.12821 0.29818,-0.16477 0.450137,-0.0889 0.07425,0.0371 0.138372,0.1024 0.144838,0.14756 0.0113,0.0789 0.148626,0.17587 0.226817,0.16023 0.02138,-0.004 0.05064,-0.0603 0.06502,-0.12452 z m 4.784783,-7.09763 c 0,-0.20202 -0.163444,-0.54878 -0.301211,-0.63905 -0.05383,-0.0353 -0.09786,-0.0817 -0.09786,-0.10311 0,-0.0733 0.135208,-0.0391 0.239253,0.0606 0.100745,0.0965 0.110263,0.098 0.309265,0.0463 0.112925,-0.0293 0.267968,-0.10104 0.344538,-0.15945 0.09234,-0.0704 0.188572,-0.10618 0.285774,-0.10618 0.182823,0 0.606131,-0.10758 0.710232,-0.18049 0.09225,-0.0646 0.272982,-0.0396 0.445535,0.0617 0.06585,0.0387 0.182578,0.082 0.2594,0.0964 0.132412,0.0248 0.135525,0.0229 0.05986,-0.0364 -0.145842,-0.1142 -0.198528,-0.166 -0.319038,-0.31365 -0.135626,-0.16617 -0.276215,-0.18755 -0.55893,-0.085 -0.0878,0.0318 -0.414995,0.0872 -0.727107,0.12292 -0.536563,0.0615 -0.584391,0.0611 -0.87797,-0.006 -0.403472,-0.0927 -0.672516,-0.22828 -0.771708,-0.38893 -0.147963,-0.23963 -0.303221,-0.86483 -0.358903,-1.44525 -0.02106,-0.21949 -0.05481,-0.49785 -0.07502,-0.61857 -0.0202,-0.12072 -0.04878,-0.29132 -0.06351,-0.37912 -0.06665,-0.39733 -0.258854,-1.29982 -0.29747,-1.39677 -0.01748,-0.0439 -0.05476,-0.15639 -0.08282,-0.24999 -0.02807,-0.0936 -0.07501,-0.19008 -0.104317,-0.2144 -0.02931,-0.0243 -0.05329,-0.0607 -0.05329,-0.081 0,-0.12888 -0.964338,-1.16256 -1.558203,-1.67026 -0.234361,-0.20035 -0.7236,-0.55295 -0.917551,-0.66129 -0.04278,-0.0239 -0.109338,-0.0696 -0.1479,-0.10158 -0.03856,-0.032 -0.207097,-0.12601 -0.374523,-0.20897 l -0.30441,-0.15083 -0.214389,0.0662 c -0.127971,0.0395 -0.423535,0.0749 -0.733245,0.0879 -0.546149,0.0229 -0.527828,0.0252 -1.844933,-0.23021 -0.153805,-0.0298 -0.366959,-0.038 -0.558706,-0.0215 -0.170514,0.0147 -0.354679,0.0305 -0.409253,0.0352 -0.06383,0.005 -0.104449,0.037 -0.113866,0.0883 -0.0348,0.18973 -0.246693,0.29058 -0.507666,0.24162 -0.107364,-0.0201 -0.158336,-0.0638 -0.243039,-0.20838 l -0.107181,-0.18289 -0.222755,0.0241 c -0.122516,0.0133 -0.31255,0.0586 -0.422295,0.10079 -0.109747,0.0422 -0.256802,0.0857 -0.326793,0.0968 -0.06999,0.011 -0.143992,0.0304 -0.164452,0.043 -0.05604,0.0346 -0.49112,0.0639 -1.005293,0.0676 -0.269734,0.002 -0.49342,0.0226 -0.542579,0.05 -0.144205,0.0805 -0.318855,0.31483 -0.466034,0.62534 -0.203516,0.42936 -0.281433,0.7125 -0.510073,1.8535 -0.04374,0.21828 -0.106035,0.45001 -0.138435,0.51496 -0.0324,0.0649 -0.05891,0.15148 -0.05891,0.19231 0,0.0408 -0.01586,0.1054 -0.03525,0.14352 -0.01939,0.0381 -0.05352,0.11419 -0.07584,0.16906 -0.02232,0.0549 -0.07829,0.18488 -0.124379,0.2889 -0.04609,0.10402 -0.08379,0.20105 -0.08379,0.21563 0,0.0146 -0.05388,0.14052 -0.119723,0.27989 -0.06585,0.13937 -0.119723,0.27629 -0.119723,0.30427 0,0.028 -0.03054,0.0945 -0.06787,0.14777 -0.03733,0.0533 -0.07167,0.12464 -0.07631,0.15854 -0.0046,0.0339 -0.02787,0.16938 -0.05162,0.30108 -0.06819,0.37806 -0.05528,0.6342 0.04011,0.79587 0.094,0.15932 0.183589,0.19442 0.133173,0.0522 -0.0175,-0.0494 -0.03307,-0.18208 -0.03459,-0.29487 -0.0023,-0.17022 0.01928,-0.23576 0.126939,-0.38565 0.07134,-0.0993 0.1297,-0.20766 0.1297,-0.24077 0,-0.0331 0.07435,-0.12385 0.165223,-0.20163 0.09087,-0.0778 0.198271,-0.19577 0.238659,-0.26218 0.05176,-0.0851 0.100171,-0.11791 0.164015,-0.11111 0.08292,0.009 0.0914,-0.008 0.10022,-0.2012 0.0095,-0.20725 0.08666,-0.41611 0.173644,-0.46987 0.06413,-0.0396 0.23026,0.0999 0.311496,0.26169 0.03858,0.0768 0.122623,0.24645 0.18676,0.37696 0.137556,0.2799 0.235689,0.34519 0.195309,0.12995 -0.01666,-0.0888 -0.0051,-0.1888 0.0317,-0.27357 0.144541,-0.33308 0.156831,-0.37593 0.290067,-1.01154 0.0092,-0.0439 0.03375,-0.16063 0.05454,-0.2594 0.117448,-0.55779 0.264938,-0.91934 0.493506,-1.20976 0.110527,-0.14044 0.11561,-0.1605 0.06575,-0.2594 -0.08064,-0.15995 -0.256691,-0.41233 -0.372817,-0.53446 -0.1091,-0.11474 -0.132023,-0.1913 -0.05727,-0.1913 0.108684,0 0.672426,0.62591 0.673083,0.7473 7.9e-5,0.017 0.04084,0.11171 0.09055,0.21048 0.04971,0.0988 0.125191,0.28284 0.167728,0.40905 0.04254,0.12621 0.09743,0.22947 0.121983,0.22947 0.02455,0 0.08818,-0.0465 0.14139,-0.10338 0.133958,-0.14314 0.509749,-0.32255 0.791853,-0.37805 0.129805,-0.0255 0.369028,-0.0397 0.531606,-0.0315 0.344296,0.0174 0.692976,0.17153 0.979616,0.43308 0.109946,0.10032 0.19547,0.14829 0.239446,0.13429 0.142862,-0.0455 0.27288,-0.11562 0.414293,-0.22356 0.213523,-0.16297 0.530689,-0.28932 0.8713,-0.3471 0.164619,-0.0279 0.320249,-0.0568 0.345847,-0.0641 0.0931,-0.0266 0.584218,0.0642 0.691965,0.12781 0.06084,0.0359 0.135523,0.0558 0.16597,0.0441 0.03055,-0.0117 0.07811,-0.13512 0.106139,-0.27536 0.08415,-0.42107 0.159034,-0.60547 0.330504,-0.81382 0.152507,-0.18531 0.329246,-0.29741 0.383452,-0.2432 0.01293,0.0129 -0.02649,0.0732 -0.08759,0.13385 -0.209561,0.20816 -0.404904,0.61731 -0.355808,0.74525 0.01035,0.027 0.09447,0.0886 0.186929,0.13703 0.297792,0.15587 0.409304,0.23933 0.977986,0.73189 0.544828,0.47191 1.042268,0.78533 1.284697,0.80945 0.191192,0.019 0.220481,0.0359 0.178898,0.1032 -0.0192,0.0311 -0.08879,0.0391 -0.202985,0.0234 -0.156861,-0.0215 -0.175563,-0.0152 -0.192165,0.0651 -0.02066,0.0999 -0.01127,0.23989 0.02608,0.38826 0.01382,0.0549 0.05445,0.23446 0.0903,0.39908 0.03586,0.16462 0.08423,0.35318 0.107502,0.41903 0.08384,0.23724 0.288516,0.62819 0.382051,0.72974 0.02744,0.0298 0.04989,0.0736 0.04989,0.0974 0,0.0238 0.04235,0.0988 0.09411,0.16676 0.05176,0.0679 0.141855,0.21777 0.200212,0.33301 0.05836,0.11523 0.119268,0.20965 0.135361,0.20982 0.03151,3.2e-4 0.129028,0.19108 0.129028,0.25239 0,0.0205 0.03263,0.0663 0.0725,0.10179 0.03988,0.0355 0.151858,0.20487 0.248844,0.37639 0.09699,0.17152 0.207302,0.34508 0.245143,0.3857 0.03784,0.0406 0.08111,0.1229 0.09616,0.18284 0.01505,0.0599 0.120702,0.2031 0.234791,0.3181 0.166496,0.16783 0.242148,0.21452 0.383313,0.23657 0.09673,0.0151 0.252003,0.0621 0.345048,0.10434 0.09304,0.0423 0.185261,0.0769 0.204925,0.0769 0.05355,0 0.14293,0.15787 0.199308,0.35204 0.04158,0.14319 0.05982,0.16437 0.10748,0.12482 0.03319,-0.0275 0.05741,-0.11804 0.05741,-0.21451 z m -0.219492,-0.98069 c -0.01356,-0.022 -0.0067,-0.0399 0.01524,-0.0399 0.02195,0 0.05101,0.018 0.06457,0.0399 0.01356,0.022 0.0067,0.0399 -0.01524,0.0399 -0.02195,0 -0.05101,-0.018 -0.06457,-0.0399 z m 1.600352,0.38316 c 0.121823,-0.37363 0.201094,-0.40259 0.1821,-0.0665 -0.0074,0.13033 0.004,0.26799 0.0252,0.30592 0.03125,0.0558 0.05088,0.0267 0.103186,-0.15324 0.08345,-0.28707 0.08139,-0.36192 -0.01232,-0.44674 -0.06734,-0.0609 -0.09095,-0.063 -0.189561,-0.0162 -0.135933,0.0645 -0.235324,0.26269 -0.266969,0.53234 -0.02111,0.17991 -0.01774,0.19209 0.03429,0.12376 0.03174,-0.0417 0.08758,-0.16738 0.124082,-0.27935 z m -0.822282,0.11575 c 0.08044,-0.0416 0.169208,-0.053 0.27777,-0.0356 0.148791,0.0238 0.162489,0.0178 0.203133,-0.0891 0.02397,-0.0631 0.07376,-0.14891 0.110643,-0.19081 0.06422,-0.0729 0.06283,-0.0749 -0.03271,-0.047 -0.05487,0.0161 -0.189561,0.039 -0.299307,0.0511 -0.109745,0.012 -0.226475,0.0445 -0.259399,0.072 -0.109059,0.0914 -0.31382,0.1795 -0.417049,0.1795 -0.09808,0 -0.135784,0.0718 -0.07182,0.13683 0.04277,0.0435 0.349234,-0.005 0.48874,-0.0769 z m -14.22695,-1.65623 c -0.01356,-0.022 -0.05054,-0.0399 -0.08217,-0.0399 -0.03163,0 -0.05751,0.018 -0.05751,0.0399 0,0.022 0.03698,0.0399 0.08217,0.0399 0.04519,0 0.07107,-0.018 0.05751,-0.0399 z m -0.2594,-0.0415 c 0,-0.036 -0.07872,-0.19639 -0.195113,-0.39748 -0.01906,-0.0329 -0.06347,-0.12721 -0.09871,-0.20952 -0.07809,-0.18244 -0.130075,-0.19074 -0.154449,-0.0247 -0.01874,0.12765 0.113818,0.46222 0.239036,0.60333 0.06744,0.076 0.209232,0.0952 0.209232,0.0283 z m 0.496226,-0.11389 c 0.02844,-0.046 -0.0673,-0.27483 -0.169164,-0.4043 -0.04359,-0.0554 -0.152066,-0.27062 -0.241045,-0.47822 -0.08898,-0.2076 -0.18054,-0.38372 -0.203468,-0.39136 -0.05502,-0.0183 -0.121995,0.16328 -0.121995,0.33082 0,0.14629 0.16454,0.52305 0.320145,0.73307 0.140587,0.18974 0.359625,0.30044 0.415527,0.20999 z m 1.179896,-0.12455 c 0,-0.0197 -0.04312,-0.0993 -0.09582,-0.17698 -0.06172,-0.091 -0.105984,-0.23004 -0.124381,-0.39087 -0.03658,-0.31981 -0.08542,-0.41069 -0.388771,-0.72341 -0.159286,-0.1642 -0.276987,-0.32905 -0.326583,-0.45739 -0.04265,-0.11037 -0.109862,-0.24233 -0.14936,-0.29325 -0.06155,-0.0793 -0.07781,-0.084 -0.113737,-0.0327 -0.115991,0.16564 0.08358,0.63114 0.334262,0.77967 0.120303,0.0713 0.10448,0.12287 -0.0444,0.1448 l -0.09069,0.0134 0.09601,0.14069 c 0.05281,0.0774 0.102888,0.17615 0.111293,0.21949 0.0084,0.0433 0.0474,0.079 0.08665,0.0791 0.04966,2.4e-4 0.101006,0.0731 0.16877,0.23945 0.05357,0.13151 0.09748,0.24278 0.09758,0.24726 1.19e-4,0.004 0.08319,0.0715 0.184646,0.149 0.170443,0.13014 0.254523,0.15054 0.254523,0.0618 z m -0.917877,-0.0593 c 0,-0.0329 -0.03533,-0.0599 -0.07856,-0.0599 -0.05344,0 -0.07122,0.0191 -0.05559,0.0599 0.01264,0.0329 0.04799,0.0599 0.07856,0.0599 0.03057,0 0.05559,-0.0269 0.05559,-0.0599 z m 0.03991,-0.3169 c 0,-0.0755 -0.01796,-0.14842 -0.03991,-0.16199 -0.02195,-0.0136 -0.04047,-0.055 -0.04116,-0.0922 -7.54e-4,-0.0371 -0.05456,-0.17477 -0.119723,-0.30591 -0.06516,-0.13113 -0.118471,-0.26884 -0.118471,-0.30602 0,-0.12348 -0.04749,-0.19384 -0.130827,-0.19384 -0.103275,0 -0.228342,0.11001 -0.228342,0.20085 0,0.0646 0.07783,0.26355 0.155602,0.39776 0.01908,0.0329 0.05821,0.11009 0.08696,0.17147 0.07476,0.15962 0.312207,0.42715 0.379121,0.42715 0.03807,0 0.05675,-0.0452 0.05675,-0.13732 z m 9.442199,-5.94369 c 0.197343,-0.10773 0.245375,-0.16122 0.357621,-0.39829 0.09922,-0.20954 0.106545,-0.25665 0.08353,-0.53673 -0.02283,-0.27775 -0.06164,-0.43049 -0.169286,-0.66619 -0.05462,-0.1196 -0.271578,-0.41579 -0.305829,-0.41752 -0.05515,-0.003 -0.03067,0.10782 0.03611,0.16321 0.09772,0.081 0.172095,0.28552 0.235954,0.64873 0.03794,0.21576 0.04483,0.36352 0.02071,0.44346 -0.0199,0.0659 -0.04696,0.16865 -0.06013,0.22824 -0.01317,0.0596 -0.06866,0.15305 -0.123307,0.2077 -0.05465,0.0547 -0.09936,0.11674 -0.09936,0.13799 0,0.0212 -0.0609,0.0587 -0.135345,0.0833 -0.207136,0.0684 -0.480166,-0.0136 -0.609345,-0.18299 -0.101276,-0.13278 -0.173185,-0.14554 -0.173185,-0.0307 0,0.0738 0.224799,0.30231 0.359167,0.36515 0.127888,0.0598 0.433695,0.036 0.582701,-0.0453 z m -7.003736,-0.18344 c 0.122975,-0.0445 0.29807,-0.0809 0.3891,-0.0809 0.120515,0 0.165511,-0.0163 0.165511,-0.0599 0,-0.0333 -0.03547,-0.0599 -0.07982,-0.0599 -0.05321,0 -0.07981,-0.0266 -0.07981,-0.0798 0,-0.0618 0.02661,-0.0798 0.117806,-0.0798 0.09471,0 0.142028,-0.0352 0.241363,-0.17959 0.134495,-0.19548 0.213104,-0.22355 0.279354,-0.0998 0.02349,0.0439 0.07525,0.0798 0.11502,0.0798 0.03977,0 0.113719,-0.0359 0.164333,-0.0798 0.05062,-0.0439 0.105934,-0.0798 0.122931,-0.0798 0.017,0 0.07763,0.0988 0.13474,0.21949 0.08594,0.18166 0.121407,0.21949 0.205762,0.21949 0.145384,0 0.09865,0.0968 -0.05406,0.11203 -0.06778,0.007 -0.133175,0.0382 -0.145329,0.0698 -0.01216,0.0317 -0.0092,0.0562 0.0066,0.0544 0.01577,-0.002 0.153523,-0.025 0.30611,-0.0518 0.233585,-0.041 0.371296,-0.0376 0.87135,0.0215 0.326655,0.0386 0.623835,0.079 0.660399,0.0899 0.239087,0.071 0.921775,0.10459 1.277427,0.0629 0.487978,-0.0572 1.037458,-0.24931 1.237268,-0.43261 0.08018,-0.0736 0.190679,-0.16326 0.245551,-0.19936 0.207711,-0.13664 0.368553,-0.31041 0.448409,-0.48444 0.109114,-0.23779 0.141695,-0.70121 0.06055,-0.8613 -0.03262,-0.0644 -0.07116,-0.1825 -0.08564,-0.26256 -0.02248,-0.12429 -0.01015,-0.16236 0.08446,-0.26068 0.197047,-0.20478 0.395492,-0.44109 0.552881,-0.65837 0.08464,-0.11685 0.165647,-0.22142 0.180022,-0.2324 0.01438,-0.011 0.06608,-0.10974 0.114891,-0.21949 0.04881,-0.10975 0.113967,-0.25168 0.144786,-0.31542 0.03082,-0.0637 0.05603,-0.13127 0.05603,-0.15008 0,-0.0188 0.03454,-0.11034 0.07675,-0.20339 0.102954,-0.22694 0.1627,-0.5378 0.1627,-0.8465 v -0.25437 l -0.212572,0.005 c -0.171059,0.004 -0.248188,-0.0176 -0.39494,-0.1104 -0.253214,-0.1602 -0.326007,-0.2963 -0.298907,-0.55889 0.03619,-0.35065 0.240307,-0.65877 0.436408,-0.65877 0.08869,0 0.0896,0.0329 0.0036,0.12802 -0.03706,0.0409 -0.07066,0.10522 -0.07467,0.14282 -0.004,0.0376 -0.01862,0.0953 -0.03247,0.12823 -0.06542,0.15556 0.402687,0.44061 0.629899,0.38358 0.09978,-0.025 0.103316,-0.0363 0.103316,-0.32831 0,-0.74932 -0.502037,-1.66909 -1.265658,-2.31879 -0.174935,-0.14884 -0.370282,-0.3 -0.434102,-0.33591 -0.06382,-0.0359 -0.222239,-0.13066 -0.352039,-0.21054 -0.129802,-0.0799 -0.314585,-0.18 -0.41063,-0.22248 l -0.174628,-0.0772 -0.03833,0.10082 c -0.02108,0.0554 -0.03833,0.11352 -0.03833,0.12904 0,0.0155 -0.05253,0.0919 -0.116731,0.16983 -0.109615,0.13298 -0.567941,0.41573 -0.608361,0.37531 -0.01017,-0.0102 -0.07429,-0.002 -0.142503,0.0171 -0.219573,0.063 -0.596442,-0.13321 -0.690056,-0.35921 -0.104665,-0.25269 0.175777,-0.87731 0.302114,-0.67289 0.01442,0.0233 -0.0026,0.0742 -0.03777,0.11313 -0.05189,0.0573 -0.05584,0.0941 -0.02088,0.19439 0.07336,0.21044 0.323773,0.31166 0.516229,0.20866 0.09355,-0.0501 0.146524,-0.35378 0.08255,-0.47331 -0.08452,-0.15792 -0.192691,-0.18233 -0.977559,-0.22056 -0.516766,-0.0252 -1.413772,0.19388 -2.123739,0.51862 -0.11487,0.0525 -0.224454,0.0955 -0.243521,0.0955 -0.01907,0 -0.1041,0.0636 -0.188962,0.14133 -0.157867,0.1446 -0.259432,0.15607 -0.261592,0.0295 -0.0012,-0.0674 -0.0033,-0.0674 -0.04189,-0.001 -0.0626,0.10747 -0.141708,0.0832 -0.195528,-0.0599 -0.09778,-0.26 -0.142215,-0.32085 -0.279709,-0.38299 -0.07707,-0.0348 -0.185031,-0.0927 -0.239903,-0.12862 -0.12811,-0.0838 -0.739218,-0.2256 -1.089854,-0.25287 -0.420865,-0.0327 -0.842609,0.0363 -1.169305,0.19148 -0.268832,0.12767 -0.49447,0.33716 -0.49447,0.45908 0,0.0698 0.273462,0.1733 0.451566,0.17084 0.194477,-0.003 0.266772,-0.0636 0.266772,-0.22476 0,-0.15334 0.03354,-0.19641 0.106074,-0.13621 0.07308,0.0606 0.06757,0.31617 -0.0092,0.42575 -0.03451,0.0493 -0.171276,0.14436 -0.303931,0.21133 -0.198897,0.1004 -0.291315,0.12227 -0.527018,0.12471 -0.297429,0.003 -0.395171,-0.0307 -0.591324,-0.20432 -0.07286,-0.0645 -0.116681,-0.15235 -0.134176,-0.26901 -0.02438,-0.16255 -0.03247,-0.17174 -0.131248,-0.14892 -0.0579,0.0134 -0.21302,0.0839 -0.344714,0.15674 -0.214699,0.11873 -0.302473,0.18542 -0.604241,0.45907 -0.04699,0.0426 -0.100868,0.0788 -0.119723,0.0805 -0.01886,0.002 -0.133054,0.11985 -0.253775,0.26265 -0.12072,0.1428 -0.259898,0.30064 -0.309284,0.35075 -0.04939,0.0501 -0.08979,0.1014 -0.08979,0.11396 0,0.0126 -0.07743,0.1362 -0.172068,0.27477 -0.117114,0.17149 -0.193232,0.34117 -0.238337,0.5313 -0.06235,0.26285 -0.08838,0.75525 -0.05169,0.97774 0.0091,0.0549 0.01795,0.10985 0.01978,0.12218 0.0018,0.0123 0.03994,0.0617 0.08469,0.10974 0.101689,0.10915 0.314474,0.11429 0.537199,0.013 0.213629,-0.0972 0.275478,-0.17779 0.241295,-0.3145 -0.06762,-0.27045 -0.07269,-0.37968 -0.01677,-0.36129 0.10224,0.0336 0.234416,0.27844 0.234416,0.4342 0,0.21988 -0.05359,0.3294 -0.267829,0.54731 -0.158761,0.16149 -0.22995,0.20276 -0.420578,0.24379 -0.277413,0.0597 -0.29158,0.118 -0.108291,0.44563 0.06665,0.11913 0.136302,0.24354 0.154788,0.27646 0.01849,0.0329 0.0626,0.12272 0.09802,0.19954 0.113395,0.2459 0.403872,0.68129 0.576235,0.8637 0.09196,0.0973 0.167191,0.18497 0.167191,0.19478 0,0.01 0.05234,0.1034 0.116304,0.20799 0.06397,0.10459 0.128562,0.27347 0.143542,0.37528 0.02387,0.16223 0.0095,0.22117 -0.116303,0.4765 -0.14655,0.29748 -0.191359,0.61892 -0.109507,0.78557 0.01872,0.0381 0.06811,0.14113 0.109747,0.22893 0.07884,0.16623 0.359163,0.49885 0.420417,0.49885 0.01938,0 0.124658,0.0628 0.233954,0.13967 0.109296,0.0768 0.22342,0.13968 0.253609,0.13968 0.03019,0 0.100549,0.0359 0.156357,0.0798 0.05581,0.0439 0.126471,0.0798 0.157032,0.0798 0.03056,0 0.07396,0.0184 0.09644,0.0409 0.07487,0.0749 0.986531,0.2827 1.264483,0.28826 0.149464,0.003 0.278268,0.016 0.286234,0.0289 0.03082,0.0499 1.122859,-0.0783 1.341724,-0.15741 z m 4.85245,-1.22377 c -0.01525,-0.0152 -0.02772,-0.0862 -0.02772,-0.15769 0,-0.20401 -0.156805,-0.36043 -0.388312,-0.38737 -0.104692,-0.0122 -0.228476,-0.034 -0.275075,-0.0484 -0.07282,-0.0226 -0.08849,-0.006 -0.111554,0.11676 -0.01475,0.0787 -0.04592,0.14301 -0.06925,0.14301 -0.03865,0 -0.03133,-0.0755 0.02707,-0.27935 0.0094,-0.0329 -4.52e-4,-0.0868 -0.02185,-0.11973 -0.03448,-0.0529 -0.04342,-0.053 -0.07714,-5e-4 -0.03125,0.0486 -0.0377,0.045 -0.03571,-0.0199 0.0014,-0.0436 -0.03681,-0.17808 -0.08478,-0.2988 -0.0687,-0.17289 -0.08697,-0.30036 -0.08606,-0.60038 6.03e-4,-0.20948 0.0215,-0.4609 0.04637,-0.5587 0.0939,-0.3693 0.09341,-0.38578 -0.01373,-0.45597 -0.20823,-0.13644 -0.28113,-0.48895 -0.182294,-0.88146 0.02536,-0.10073 0.06803,-0.17731 0.09878,-0.17731 0.03996,0 0.04502,0.024 0.01933,0.0916 -0.03697,0.0973 -0.06205,0.38117 -0.04831,0.54697 0.0046,0.0549 0.06923,0.171 0.143728,0.25807 0.133726,0.15628 0.136512,0.15734 0.217995,0.0836 0.04539,-0.0411 0.08254,-0.0967 0.08254,-0.12348 0,-0.0268 0.02562,-0.0701 0.05693,-0.096 0.04397,-0.0365 0.04771,-0.0737 0.01642,-0.16345 -0.09044,-0.25943 0.121788,-0.81836 0.422807,-1.11354 0.237523,-0.23291 0.281513,-0.18006 0.05767,0.0693 -0.230841,0.25715 -0.354422,0.51244 -0.353743,0.73075 9.05e-4,0.29127 0.03179,0.35461 0.173716,0.35621 0.06878,7.9e-4 0.169133,0.0258 0.223016,0.0557 0.0916,0.0507 0.109023,0.0437 0.268084,-0.10788 0.167371,-0.15952 0.367367,-0.2551 0.57998,-0.2772 0.160859,-0.0167 0.153672,0.0634 -0.0082,0.0914 -0.181512,0.0314 -0.407535,0.12946 -0.462227,0.20044 -0.09977,0.1295 -0.148418,0.31806 -0.105071,0.40727 0.02346,0.0483 0.05885,0.14166 0.07864,0.20751 0.04227,0.14067 0.160026,0.1738 0.297532,0.0837 0.125473,-0.0822 0.502259,-0.12177 0.642492,-0.0674 0.173134,0.0671 0.09536,0.11233 -0.157038,0.0914 -0.186629,-0.0155 -0.258729,-0.002 -0.398418,0.0743 -0.195644,0.10688 -0.219323,0.16759 -0.228666,0.5863 -0.0067,0.30074 0.01489,0.33378 0.165775,0.25359 0.159552,-0.0848 0.681049,0.0868 0.68453,0.22528 0.002,0.0787 -0.07649,0.0587 -0.209501,-0.0532 -0.09098,-0.0765 -0.148947,-0.0966 -0.225253,-0.078 -0.05651,0.0138 -0.17407,0.0405 -0.261244,0.0594 -0.161646,0.0351 -0.380255,0.22974 -0.380255,0.33863 0,0.0308 0.05765,0.0687 0.128105,0.0842 0.166708,0.0366 0.388542,0.28108 0.389769,0.42953 6.04e-4,0.0648 -0.01593,0.10168 -0.03898,0.0874 -0.02195,-0.0136 -0.03991,-0.0562 -0.03991,-0.0947 0,-0.0751 -0.16437,-0.24639 -0.306661,-0.31949 -0.113722,-0.0584 -0.252047,-0.0574 -0.252047,0.002 0,0.0257 -0.03,0.0799 -0.06667,0.12041 -0.06275,0.0693 -0.06058,0.0801 0.03678,0.18273 0.113754,0.11991 0.177633,0.36537 0.12129,0.46605 -0.01978,0.0353 -0.04844,0.0518 -0.06369,0.0365 z m -0.223439,-0.72141 c 0.06375,-0.0376 0.115904,-0.0923 0.115904,-0.12134 0,-0.0291 0.03903,-0.10566 0.08673,-0.17017 0.0794,-0.1074 0.08142,-0.12327 0.02393,-0.18795 -0.09612,-0.10813 -0.19047,-0.36411 -0.19047,-0.51678 0,-0.19983 0.08035,-0.49501 0.169604,-0.62306 0.09691,-0.13904 0.0733,-0.24477 -0.09848,-0.44091 -0.09228,-0.10538 -0.174745,-0.15641 -0.279114,-0.17274 -0.135446,-0.0212 -0.16161,-0.009 -0.30542,0.1455 -0.233493,0.25039 -0.337293,0.56934 -0.342288,1.05175 -0.0022,0.2158 0.0078,0.39968 0.02222,0.40861 0.01445,0.009 0.03881,0.0838 0.05412,0.16634 0.05017,0.27047 0.314731,0.52259 0.553714,0.52766 0.04051,8.6e-4 0.125814,-0.0292 0.189561,-0.0669 z m -7.200837,0.47776 c -0.03048,-0.0493 -0.0324,-0.40474 -0.003,-0.55521 0.01889,-0.0967 4.52e-4,-0.16144 -0.07914,-0.27864 -0.05706,-0.084 -0.103752,-0.1767 -0.103752,-0.20605 0,-0.0325 -0.03508,-0.0484 -0.08979,-0.0406 -0.11821,0.0168 -0.329949,0.33533 -0.363859,0.54739 -0.03113,0.19468 -0.105429,0.21896 -0.104179,0.0341 0.0012,-0.18583 0.126828,-0.43699 0.310111,-0.62028 l 0.158424,-0.15842 -0.02053,-0.36001 c -0.01808,-0.31704 -0.03084,-0.36553 -0.106942,-0.40626 -0.127429,-0.0682 -0.305843,-0.0621 -0.45612,0.0156 -0.142838,0.0739 -0.216725,0.0545 -0.122894,-0.0322 0.1241,-0.11467 0.380832,-0.18237 0.532637,-0.14046 0.07947,0.022 0.160064,0.0303 0.179098,0.0185 0.06208,-0.0384 0.07872,-0.23796 0.03647,-0.4375 -0.07696,-0.36349 -0.378029,-0.65759 -0.612835,-0.59866 -0.111224,0.0279 -0.134096,-0.0397 -0.03264,-0.0964 0.06163,-0.0345 0.228943,-0.0118 0.383773,0.0521 0.111121,0.0459 0.389092,0.42046 0.389092,0.52434 0,0.11498 0.103898,0.12747 0.139048,0.0167 0.01359,-0.0428 0.08536,-0.11533 0.159497,-0.16115 0.07414,-0.0458 0.142116,-0.10507 0.151064,-0.13168 0.01226,-0.0365 0.08733,-0.0302 0.304815,0.0254 0.280697,0.0718 0.290025,0.0718 0.342892,0 0.15731,-0.2136 0.06079,-0.6809 -0.173279,-0.83888 -0.140348,-0.0947 -0.111354,-0.15568 0.04566,-0.096 0.165051,0.0627 0.347255,0.38397 0.347255,0.61219 0,0.0696 -0.029,0.20244 -0.06446,0.29526 -0.06203,0.16242 -0.06115,0.17412 0.02321,0.31062 0.04821,0.078 0.09967,0.14128 0.11434,0.14058 0.03912,-0.002 0.246169,-0.18953 0.246169,-0.22315 0,-0.0158 0.02952,-0.0613 0.0656,-0.10119 0.06947,-0.0768 0.0909,-0.38059 0.03824,-0.54203 -0.04355,-0.1335 0.01272,-0.19224 0.08513,-0.0889 0.03721,0.0531 0.06015,0.17106 0.05896,0.30313 -0.0023,0.25128 -0.138845,0.52521 -0.351046,0.70403 l -0.131153,0.11052 0.0746,0.16884 c 0.102627,0.23226 0.135009,0.53247 0.08063,0.74749 -0.02498,0.0988 -0.05164,0.2155 -0.05924,0.2594 -0.0363,0.20963 -0.128401,0.33136 -0.515062,0.68073 -0.113279,0.10235 -0.125602,0.19623 -0.05928,0.45165 0.0078,0.0302 -0.0071,0.0627 -0.03314,0.0723 -0.03042,0.0112 -0.06442,-0.0691 -0.09498,-0.22448 -0.04427,-0.22503 -0.05519,-0.24194 -0.156175,-0.24194 -0.05972,0 -0.166491,-0.0202 -0.237277,-0.0449 -0.174589,-0.0609 -0.211972,-0.0131 -0.217715,0.27829 -0.0046,0.23174 -0.03385,0.32746 -0.07821,0.25568 z m 0.868199,-0.70883 c 0.138043,-0.0937 0.339657,-0.29437 0.340546,-0.33898 1.5e-4,-0.011 -0.05758,-0.0469 -0.128439,-0.0798 -0.180603,-0.0839 -0.246667,-0.24358 -0.247693,-0.59861 -9.05e-4,-0.33469 0.09277,-0.58569 0.246873,-0.66101 l 0.08811,-0.0431 -0.103992,-0.14616 c -0.07345,-0.10322 -0.167684,-0.16998 -0.320839,-0.22728 -0.302123,-0.11304 -0.481963,-0.0636 -0.648255,0.17805 -0.06643,0.0966 -0.120778,0.21166 -0.120778,0.25579 0,0.0441 -0.01692,0.0907 -0.0376,0.10349 -0.09318,0.0576 -0.130616,0.76768 -0.05429,1.02961 0.09589,0.32905 0.430508,0.62218 0.714865,0.62622 0.06916,9.8e-4 0.189389,-0.0425 0.27149,-0.0982 z m 2.723827,0.67201 c -0.01463,-0.0146 -0.02661,-0.0611 -0.02661,-0.10328 0,-0.0671 0.01956,-0.0734 0.156643,-0.0502 0.210452,0.0356 0.331013,-0.0303 0.314663,-0.17179 -0.01201,-0.10387 -0.01907,-0.10667 -0.237383,-0.0937 -0.124167,0.007 -0.236212,-0.005 -0.250001,-0.0271 -0.0282,-0.0456 0.03217,-0.0694 0.306417,-0.12046 0.17759,-0.0331 0.196068,-0.0285 0.27132,0.0671 0.128474,0.16333 0.0901,0.32564 -0.102721,0.4345 -0.153602,0.0867 -0.376952,0.12021 -0.432333,0.0648 z m -3.17931,-3.16466 c 0,-0.25238 -0.20889,-0.59734 -0.423348,-0.69911 -0.13745,-0.0652 -0.14993,-0.14043 -0.02326,-0.14015 0.13997,3.2e-4 0.312575,0.1535 0.437917,0.38867 0.138976,0.26074 0.169742,0.50466 0.06855,0.54349 -0.04474,0.0172 -0.05986,-0.006 -0.05986,-0.0929 z m 8.620054,-0.87926 c 0,-0.0813 -0.335217,-0.78425 -0.454825,-0.9538 -0.06811,-0.0966 -0.175688,-0.2492 -0.239061,-0.33922 -0.429279,-0.60976 -1.194167,-1.01731 -1.824607,-0.9722 -0.175468,0.0126 -0.320227,0.0491 -0.414327,0.10463 -0.326088,0.1924 -0.263046,0.0218 0.07252,-0.19623 0.209911,-0.1364 0.271846,-0.15718 0.463796,-0.15566 0.474649,0.004 0.918482,0.21939 1.408967,0.68446 0.178233,0.16901 0.787996,0.98783 0.787996,1.05817 0,0.0127 0.0614,0.15079 0.136451,0.30682 0.179312,0.3728 0.212234,0.50288 0.127276,0.50288 -0.0353,0 -0.06419,-0.0179 -0.06419,-0.0399 z m -10.336083,-0.50212 c 0,-0.0922 0.375474,-0.55309 0.777648,-0.95457 0.490527,-0.48967 0.938075,-0.82434 1.257643,-0.94045 0.09877,-0.0359 0.260396,-0.10232 0.359169,-0.14762 0.185917,-0.0853 0.275286,-0.10113 0.527523,-0.0936 0.108184,0.003 0.142711,0.0192 0.127406,0.0591 -0.01154,0.0301 0.0061,0.0651 0.03926,0.0778 0.0619,0.0238 0.423225,0.49662 0.423225,0.55387 0,0.0648 -0.118302,0.0293 -0.15963,-0.0479 -0.02349,-0.0439 -0.06124,-0.0798 -0.08388,-0.0798 -0.02264,0 -0.102639,-0.0469 -0.177773,-0.1042 -0.07513,-0.0573 -0.16154,-0.0946 -0.192013,-0.0829 -0.03047,0.0117 -0.07329,0.003 -0.09514,-0.0185 -0.02185,-0.0219 -0.136284,-0.0415 -0.254286,-0.0436 -0.18319,-0.003 -0.275795,0.0268 -0.633579,0.20565 -0.633771,0.31688 -1.014311,0.63663 -1.476631,1.24078 -0.214283,0.28001 -0.329603,0.39907 -0.386542,0.39907 -0.02882,0 -0.0524,-0.0104 -0.0524,-0.0232 z m 9.789281,6.17026 c -0.03523,-0.13473 -0.119598,-0.17923 -0.237736,-0.12541 -0.117815,0.0537 -0.101851,0.0842 0.07904,0.151 0.174805,0.0646 0.181968,0.0634 0.158695,-0.0256 z m -4.688458,-0.11564 c 0.05048,-0.032 0.167006,-0.22695 0.16697,-0.27933 -9e-6,-0.0139 -0.134698,-0.0261 -0.299308,-0.027 -0.164609,-9e-4 -0.299289,0.005 -0.299289,0.0123 0,0.008 0.05688,0.0847 0.126402,0.17125 0.125136,0.15571 0.203542,0.18725 0.305225,0.12277 z m -5.223615,-0.16809 c 0.12635,-0.12635 0.163977,-0.27629 0.06934,-0.27629 -0.0294,0 -0.07407,0.0453 -0.09928,0.10057 -0.139479,0.30613 -0.624318,0.17831 -0.785324,-0.20703 -0.07043,-0.16858 -0.07785,-0.52804 -0.01504,-0.72876 0.123678,-0.39523 0.248891,-0.68486 0.337329,-0.78029 0.09893,-0.10675 0.09828,-0.18033 -0.0016,-0.18033 -0.125714,0 -0.442144,0.51476 -0.540139,0.87869 -0.07446,0.27651 -0.07893,0.59803 -0.01136,0.81738 0.107885,0.35027 0.304304,0.48995 0.696893,0.49559 0.201747,0.003 0.23977,-0.0101 0.349192,-0.11953 z m 10.819415,0.0822 c 0.04177,-0.0224 0.122785,-0.12058 0.180038,-0.21827 0.09433,-0.16097 0.102314,-0.20677 0.08508,-0.48814 -0.03086,-0.50386 -0.115283,-0.75766 -0.166878,-0.5017 -0.04095,0.20316 -0.274392,0.62754 -0.447825,0.81411 l -0.170976,0.18393 0.08097,0.10295 c 0.04874,0.062 0.132227,0.10932 0.209711,0.11896 0.0708,0.009 0.134405,0.0189 0.141336,0.0224 0.0069,0.004 0.04677,-0.0119 0.08854,-0.0342 z m -11.013902,-0.2996 c 0.137985,-0.0714 0.153628,-0.18881 0.03611,-0.27112 -0.125699,-0.088 -0.300481,-0.38884 -0.359301,-0.61834 -0.02918,-0.11384 -0.0668,-0.20698 -0.0836,-0.20698 -0.04632,0 -0.09291,0.26998 -0.0935,0.54188 -6.03e-4,0.26839 0.09636,0.50206 0.236561,0.57014 0.112863,0.0548 0.129519,0.0538 0.263736,-0.0156 z m 14.590571,9.93103 c -0.01445,-0.0144 -0.02626,-0.0393 -0.02626,-0.0552 0,-0.0447 0.114533,-0.0782 0.137961,-0.0403 0.02642,0.0427 -0.07649,0.13077 -0.111701,0.0956 z"
       id="path1203"
       inkscape:connector-curvature="0" />
  </g>
</svg>
